<?xml version="1.0" standalone="no"?>
<!DOCTYPE svg PUBLIC "-//W3C//DTD SVG 20010904//EN"
 "http://www.w3.org/TR/2001/REC-SVG-20010904/DTD/svg10.dtd">
<svg version="1.0" xmlns="http://www.w3.org/2000/svg"
 width="25.000000pt" height="25.000000pt" viewBox="0 0 34.000000 34.000000"
 preserveAspectRatio="xMidYMid meet">
<metadata>
Created by potrace 1.15, written by Peter Selinger 2001-2017
</metadata>
<g transform="translate(0.000000,34.000000) scale(0.100000,-0.100000)"
fill="#000000" stroke="none">
<path d="M20 242 c0 -111 23 -163 92 -205 57 -35 86 -30 144 29 50 49 64 91
64 192 l0 72 -150 0 -150 0 0 -88z m110 -2 c0 -93 19 -91 22 3 l2 72 6 -90 6
-90 2 88 c2 106 21 118 24 15 l2 -73 3 73 4 72 54 0 55 0 0 -56 c0 -30 -5 -64
-10 -75 -13 -24 -46 -25 -55 -1 -6 16 -7 16 -17 -1 -7 -13 -6 -27 2 -48 15
-36 9 -44 -25 -35 -18 5 -25 12 -21 21 7 20 -11 19 -22 0 -10 -19 -63 -25 -69
-8 -3 7 3 9 16 6 27 -7 27 13 1 27 -15 8 -19 17 -15 31 5 15 2 19 -15 19 -13
0 -24 -8 -27 -20 -11 -41 -23 -6 -23 66 l0 74 50 0 50 0 0 -70z"/>
</g>
</svg>
