<?xml version="1.0" standalone="no"?>
<!DOCTYPE svg PUBLIC "-//W3C//DTD SVG 20010904//EN"
 "http://www.w3.org/TR/2001/REC-SVG-20010904/DTD/svg10.dtd">
<svg version="1.0" xmlns="http://www.w3.org/2000/svg"
 width="4167.000000pt" height="4391.000000pt" viewBox="0 0 4167.000000 4391.000000"
 preserveAspectRatio="xMidYMid meet">
<metadata>
Created by potrace 1.15, written by Peter Selinger 2001-2017
</metadata>
<g transform="translate(0.000000,4391.000000) scale(0.100000,-0.100000)"
fill="#000000" stroke="none">
<path d="M2000 33667 l0 -8583 30 -11 30 -11 0 -244 c0 -231 1 -244 20 -261
19 -16 20 -29 20 -205 0 -176 1 -190 20 -207 18 -17 20 -31 20 -186 0 -158 1
-169 20 -179 19 -10 20 -21 20 -160 0 -133 2 -151 19 -167 16 -15 19 -38 24
-151 4 -121 7 -135 26 -148 20 -14 21 -24 21 -147 0 -121 2 -133 20 -145 18
-11 20 -23 20 -125 0 -101 2 -113 20 -125 18 -11 20 -23 20 -125 0 -101 2
-113 20 -125 18 -11 20 -23 20 -102 0 -79 2 -91 20 -102 18 -11 20 -24 20
-104 0 -77 3 -94 19 -108 15 -14 20 -34 23 -104 2 -72 7 -93 26 -116 18 -24
22 -41 22 -107 0 -68 3 -80 20 -89 18 -10 20 -21 20 -105 0 -84 2 -95 20 -105
17 -9 20 -21 20 -80 0 -59 3 -71 20 -80 18 -10 20 -21 20 -105 0 -84 2 -95 20
-105 17 -9 20 -21 20 -79 0 -54 4 -71 19 -85 14 -13 20 -35 23 -87 3 -57 7
-72 26 -85 19 -13 22 -24 22 -82 0 -55 4 -71 20 -85 16 -14 20 -29 20 -87 0
-59 3 -71 20 -80 16 -9 20 -21 20 -64 0 -40 5 -57 20 -71 16 -14 20 -31 20
-79 0 -50 4 -63 20 -74 17 -10 20 -23 20 -82 0 -57 3 -71 19 -79 13 -7 20 -25
23 -61 3 -33 13 -59 27 -73 17 -19 21 -36 21 -90 0 -56 3 -68 20 -77 16 -8 20
-21 20 -60 0 -39 4 -52 20 -60 16 -9 20 -21 20 -63 0 -41 4 -55 20 -65 16 -9
20 -23 20 -61 0 -34 6 -55 20 -71 15 -17 20 -37 20 -80 0 -43 5 -61 19 -74 12
-11 20 -35 23 -67 4 -36 11 -54 27 -65 17 -12 21 -25 21 -64 0 -39 4 -52 20
-60 16 -8 20 -21 20 -59 0 -35 5 -53 20 -66 14 -13 20 -31 20 -64 0 -35 5 -49
20 -59 16 -9 20 -23 20 -62 0 -39 4 -52 20 -60 13 -7 20 -21 20 -39 0 -16 8
-39 18 -52 11 -13 22 -44 26 -69 4 -24 14 -52 22 -61 9 -10 18 -37 21 -61 4
-25 14 -48 25 -56 13 -10 18 -26 18 -62 0 -39 4 -52 20 -60 15 -8 20 -21 20
-50 0 -29 5 -42 20 -50 15 -8 20 -21 20 -55 0 -34 5 -47 20 -55 16 -8 20 -21
20 -60 0 -38 4 -52 19 -59 10 -6 22 -27 26 -48 4 -20 15 -48 26 -61 11 -14 19
-40 19 -61 0 -25 6 -40 20 -49 14 -9 20 -23 20 -51 0 -31 4 -41 20 -46 16 -5
20 -15 20 -50 0 -34 5 -47 20 -55 14 -7 20 -21 20 -44 0 -20 8 -40 20 -51 13
-12 20 -31 20 -55 0 -23 7 -43 19 -54 10 -9 22 -31 25 -48 3 -17 15 -37 26
-45 15 -11 20 -26 20 -63 0 -39 4 -52 20 -60 13 -7 20 -21 20 -40 0 -19 7 -33
20 -40 13 -7 20 -21 20 -39 0 -15 9 -36 20 -46 15 -13 20 -31 20 -66 0 -38 4
-51 20 -59 12 -6 20 -21 20 -35 0 -13 8 -32 19 -42 10 -10 22 -33 26 -51 3
-18 15 -37 26 -42 12 -7 19 -21 19 -41 0 -17 9 -42 20 -56 11 -14 20 -36 20
-49 0 -13 9 -28 20 -34 15 -8 20 -21 20 -53 0 -31 5 -45 20 -55 13 -8 20 -23
20 -42 0 -19 7 -33 20 -40 12 -6 20 -21 20 -35 0 -13 8 -32 19 -42 10 -10 21
-31 25 -48 4 -16 16 -38 27 -48 10 -10 19 -28 19 -41 0 -13 9 -31 20 -41 11
-10 20 -30 20 -44 0 -15 8 -31 20 -39 12 -7 20 -23 20 -38 0 -14 9 -37 20 -51
11 -14 20 -38 20 -54 0 -19 6 -30 20 -34 15 -5 20 -15 20 -40 0 -24 6 -38 20
-45 12 -6 20 -21 20 -35 0 -14 11 -35 25 -47 15 -13 25 -32 25 -49 0 -18 7
-32 20 -39 13 -7 20 -21 20 -40 0 -19 7 -33 20 -40 11 -6 20 -21 20 -33 0 -12
9 -28 20 -35 13 -8 20 -23 20 -42 0 -19 7 -33 20 -40 12 -6 20 -21 20 -35 0
-13 8 -32 19 -42 10 -10 21 -31 25 -48 4 -16 16 -38 27 -48 10 -10 19 -28 19
-40 0 -12 9 -30 20 -40 11 -9 20 -29 20 -44 0 -17 8 -33 20 -41 12 -7 20 -23
20 -40 0 -16 8 -32 20 -40 11 -7 20 -19 20 -27 0 -8 9 -20 20 -27 12 -8 20
-24 20 -40 0 -17 7 -31 19 -37 10 -6 22 -23 26 -38 3 -15 15 -33 26 -41 11 -8
19 -25 19 -42 0 -19 7 -33 20 -40 13 -7 20 -21 20 -40 0 -19 7 -34 20 -42 11
-7 20 -21 20 -30 0 -10 9 -22 20 -28 11 -6 20 -19 20 -29 0 -10 9 -26 20 -36
11 -10 20 -28 20 -41 0 -13 8 -31 19 -41 10 -10 21 -31 25 -48 4 -16 16 -35
27 -43 10 -7 19 -21 19 -30 0 -10 9 -23 20 -30 11 -7 20 -21 20 -32 0 -10 9
-24 20 -30 13 -7 20 -21 20 -40 0 -19 7 -33 20 -40 11 -6 20 -19 20 -30 0 -11
9 -24 20 -30 11 -6 20 -19 20 -30 0 -10 8 -25 19 -32 10 -7 21 -27 25 -44 4
-18 16 -40 27 -50 10 -9 19 -23 19 -30 0 -7 9 -18 20 -24 11 -6 20 -21 20 -33
0 -12 9 -28 20 -35 13 -8 20 -23 20 -42 0 -19 7 -33 20 -40 11 -6 20 -17 20
-25 0 -8 9 -19 20 -25 11 -6 20 -19 20 -29 0 -10 11 -30 25 -45 14 -15 25 -32
25 -39 0 -7 9 -18 20 -25 11 -7 20 -21 20 -32 0 -10 9 -24 20 -30 13 -7 20
-21 20 -43 1 -25 9 -38 40 -62 27 -21 39 -38 40 -56 0 -15 7 -33 16 -40 9 -7
20 -23 25 -36 5 -13 15 -23 23 -23 7 0 16 -14 20 -32 3 -17 15 -37 26 -45 11
-8 20 -20 20 -28 0 -7 9 -17 20 -20 14 -4 20 -15 20 -35 0 -16 7 -30 15 -34 8
-3 20 -17 25 -31 5 -14 16 -25 25 -25 10 0 15 -10 15 -30 0 -19 7 -33 20 -40
11 -6 20 -17 20 -25 0 -8 9 -19 19 -25 11 -5 22 -23 26 -40 4 -17 15 -35 26
-40 10 -6 19 -17 19 -25 0 -8 9 -19 20 -25 12 -7 20 -21 20 -38 1 -19 12 -35
40 -57 21 -16 39 -38 40 -47 0 -10 9 -22 20 -28 11 -6 20 -18 20 -26 0 -17 30
-60 68 -98 12 -13 22 -32 22 -42 0 -11 9 -25 20 -32 11 -7 20 -19 20 -26 0 -8
9 -18 20 -21 13 -4 20 -15 20 -33 0 -19 12 -38 40 -62 22 -19 40 -40 40 -46 0
-6 11 -20 25 -32 14 -12 25 -30 25 -39 0 -10 18 -34 40 -53 22 -19 40 -42 40
-50 0 -8 9 -21 20 -28 11 -7 20 -21 20 -32 0 -10 9 -24 20 -30 11 -6 20 -19
20 -29 0 -10 9 -21 20 -24 11 -3 20 -12 20 -20 0 -8 11 -22 25 -31 14 -9 25
-24 25 -34 0 -10 9 -25 20 -35 11 -9 20 -23 20 -31 0 -7 9 -16 20 -19 11 -3
20 -12 20 -20 0 -8 9 -17 20 -20 11 -3 20 -12 20 -20 0 -8 9 -17 20 -20 11 -3
20 -12 20 -20 0 -9 9 -19 20 -22 14 -4 20 -15 20 -33 0 -20 12 -39 45 -67 25
-22 45 -45 45 -51 0 -7 9 -14 20 -17 15 -4 20 -14 20 -40 0 -27 5 -37 20 -42
11 -3 20 -12 20 -20 0 -8 9 -17 20 -20 11 -3 20 -13 20 -22 0 -8 9 -17 20 -20
15 -4 20 -14 20 -39 0 -27 5 -37 25 -46 14 -6 25 -17 25 -24 0 -7 9 -16 20
-19 15 -5 20 -15 20 -40 0 -25 5 -35 20 -40 11 -3 20 -12 20 -18 0 -7 18 -28
40 -47 22 -19 40 -40 40 -47 0 -6 9 -15 20 -18 13 -4 20 -15 20 -31 0 -18 37
-61 143 -167 90 -90 146 -154 151 -171 4 -17 47 -68 106 -126 75 -74 100 -105
100 -124 0 -16 9 -31 24 -41 13 -9 26 -25 29 -35 3 -11 14 -20 24 -20 31 0
133 -87 133 -113 0 -9 9 -21 20 -27 11 -6 20 -17 20 -25 0 -8 11 -22 25 -31
14 -9 25 -23 25 -30 0 -8 7 -14 15 -14 9 0 18 -8 22 -17 4 -10 24 -34 45 -54
21 -20 38 -43 38 -53 0 -9 64 -80 143 -159 79 -78 146 -150 150 -159 3 -10 13
-18 22 -18 8 0 15 -7 15 -15 0 -9 11 -20 25 -25 14 -5 25 -16 25 -24 0 -7 9
-16 20 -19 11 -3 20 -12 20 -20 0 -9 9 -19 20 -22 11 -3 20 -12 20 -20 0 -8 9
-17 20 -20 11 -3 20 -11 20 -16 0 -14 630 -643 653 -652 9 -3 17 -13 17 -21 0
-8 9 -18 20 -21 11 -3 20 -12 20 -20 0 -8 9 -17 20 -20 11 -3 20 -12 20 -20 0
-8 9 -17 20 -20 11 -3 20 -13 20 -22 0 -8 9 -17 20 -20 11 -3 20 -11 20 -19 0
-7 10 -19 22 -25 19 -10 206 -195 246 -243 7 -9 22 -16 33 -16 11 0 46 -26 80
-60 33 -33 64 -60 69 -60 6 0 10 -6 10 -14 0 -8 9 -18 20 -21 11 -3 20 -13 20
-21 0 -8 8 -18 18 -21 22 -9 147 -133 155 -155 4 -12 17 -18 37 -18 17 0 33
-6 36 -14 3 -7 25 -28 50 -46 24 -19 44 -40 44 -47 0 -7 5 -13 11 -13 6 0 39
-29 74 -65 35 -36 72 -65 82 -65 10 0 31 -14 47 -31 16 -17 40 -38 53 -46 12
-8 23 -22 23 -29 0 -8 6 -14 13 -14 15 0 101 -81 117 -109 6 -12 19 -21 30
-21 28 0 89 -42 90 -62 0 -10 6 -18 13 -18 16 -1 61 -41 70 -63 3 -9 18 -19
33 -23 37 -9 93 -46 94 -62 0 -7 7 -15 16 -19 22 -8 59 -45 67 -65 4 -11 17
-18 32 -18 14 0 33 -8 43 -18 10 -10 26 -21 35 -25 9 -3 17 -13 17 -22 0 -8 4
-15 8 -15 13 0 68 -53 75 -72 4 -12 17 -18 36 -18 20 0 34 -7 41 -20 6 -11 15
-20 21 -20 15 0 69 -52 69 -66 0 -13 23 -24 50 -24 11 0 23 -6 27 -13 4 -8 16
-16 26 -20 9 -3 17 -13 17 -22 0 -8 5 -15 10 -15 6 0 20 -11 32 -25 12 -14 30
-25 40 -25 23 0 88 -50 88 -67 0 -7 5 -13 11 -13 7 0 22 -11 35 -25 13 -14 32
-25 44 -25 11 0 23 -7 26 -15 3 -8 15 -17 25 -20 25 -8 63 -44 72 -67 3 -10
15 -18 26 -18 30 0 51 -11 51 -26 0 -8 7 -14 14 -14 21 0 62 -40 71 -68 6 -21
11 -23 42 -17 29 5 35 3 40 -14 3 -11 14 -23 24 -26 10 -4 19 -12 19 -20 0
-14 21 -25 50 -25 11 0 24 -9 30 -20 6 -11 15 -20 21 -20 15 0 69 -52 69 -66
0 -15 26 -25 45 -18 18 7 62 -31 76 -65 8 -20 14 -22 40 -17 25 5 32 2 36 -13
2 -10 16 -24 29 -30 13 -6 24 -17 24 -26 0 -11 11 -15 40 -15 33 0 40 -3 40
-20 0 -11 5 -20 11 -20 7 0 22 -12 35 -26 13 -14 29 -22 34 -19 6 4 24 -5 41
-19 17 -14 35 -26 40 -26 5 0 9 -9 9 -21 0 -16 6 -20 28 -19 44 3 52 1 52 -16
0 -9 9 -18 20 -21 11 -3 20 -14 20 -24 0 -15 7 -19 40 -19 29 0 40 -4 40 -15
0 -9 11 -20 25 -25 14 -5 25 -16 25 -24 0 -17 24 -28 45 -20 17 7 62 -31 75
-63 7 -17 18 -23 42 -23 22 0 37 -7 46 -20 7 -11 23 -20 36 -20 12 0 31 -9 41
-20 10 -11 24 -20 32 -20 7 0 13 -9 13 -20 0 -17 7 -20 40 -20 28 0 40 -4 40
-15 0 -8 9 -19 19 -25 11 -5 23 -19 26 -30 5 -16 15 -20 46 -20 27 0 39 -4 39
-14 0 -15 21 -26 51 -26 11 0 22 -7 25 -15 3 -8 14 -17 24 -20 10 -3 20 -15
23 -25 4 -15 14 -20 41 -20 25 0 38 -6 46 -20 6 -12 21 -20 35 -20 14 0 30 -9
37 -20 7 -11 19 -20 26 -20 7 0 17 -11 22 -25 7 -19 17 -25 40 -25 17 0 39 -9
50 -20 11 -11 31 -20 45 -20 14 0 29 -8 35 -20 6 -11 17 -20 25 -20 8 0 15 -9
15 -20 0 -17 7 -20 39 -20 30 0 40 -4 44 -20 4 -15 14 -20 42 -20 28 0 38 -5
42 -20 3 -11 10 -20 17 -21 32 -2 52 -9 62 -23 6 -9 16 -16 23 -16 6 0 16 -11
21 -25 8 -20 16 -25 44 -25 26 0 36 -5 41 -20 5 -16 15 -20 46 -20 32 0 39 -3
39 -20 0 -17 7 -20 40 -20 33 0 40 -3 40 -20 0 -11 6 -21 13 -21 6 -1 23 -3
36 -4 13 -1 28 -10 33 -19 5 -9 16 -16 24 -16 8 0 19 -12 24 -26 7 -18 17 -25
33 -24 38 3 44 1 50 -20 4 -15 14 -20 40 -20 26 0 36 -5 40 -20 4 -16 14 -20
46 -20 34 0 41 -3 41 -20 0 -17 7 -20 40 -20 33 0 40 -3 40 -20 0 -17 7 -20
40 -20 33 0 40 -3 40 -19 0 -20 32 -37 49 -27 14 9 41 -4 41 -20 0 -7 16 -16
36 -20 24 -4 38 -13 41 -25 4 -14 15 -19 40 -19 26 0 36 -5 40 -20 4 -15 14
-20 39 -20 23 0 37 -6 44 -20 7 -13 21 -20 40 -20 18 0 34 -8 44 -22 9 -13 28
-23 43 -24 16 -1 31 -3 34 -3 4 -1 9 -10 12 -21 4 -15 14 -20 40 -20 26 0 36
-5 40 -20 4 -16 14 -20 45 -20 31 0 41 -4 45 -20 4 -15 14 -20 40 -20 26 0 36
-5 40 -20 4 -16 14 -20 46 -20 34 0 41 -3 41 -20 0 -17 7 -20 40 -20 33 0 40
-3 40 -20 0 -16 7 -20 38 -20 29 0 39 -5 47 -22 6 -15 19 -23 35 -24 44 -2 48
-4 53 -25 4 -14 13 -20 29 -19 39 4 45 1 51 -20 4 -17 14 -20 57 -20 43 0 53
-3 57 -20 4 -16 14 -20 49 -20 37 0 44 -3 44 -20 0 -17 7 -20 40 -20 33 0 40
-3 40 -20 0 -16 7 -20 38 -20 29 0 39 -5 47 -23 8 -18 20 -23 63 -27 36 -4 57
-11 63 -23 6 -11 22 -17 43 -17 25 0 35 -5 39 -20 4 -16 14 -20 46 -20 33 0
41 -3 41 -19 0 -15 10 -19 56 -23 39 -3 59 -10 66 -21 6 -11 22 -17 43 -17 25
0 35 -5 40 -20 4 -14 16 -20 38 -21 18 -1 41 -2 52 -3 11 -1 24 -11 30 -23 8
-18 18 -23 46 -23 28 0 38 -5 42 -20 4 -17 14 -20 62 -20 48 0 58 -3 62 -20 4
-16 14 -20 43 -20 29 0 39 -4 43 -20 4 -17 14 -20 57 -20 43 0 53 -3 57 -20 4
-16 14 -20 49 -20 36 0 44 -3 44 -19 0 -14 10 -20 38 -24 20 -4 46 -4 57 -1
14 3 23 -2 30 -18 8 -18 17 -22 43 -20 27 2 34 -2 42 -23 9 -22 15 -25 64 -25
45 0 54 -3 59 -20 4 -17 14 -20 66 -20 53 0 61 -2 61 -19 0 -15 10 -19 56 -23
39 -3 59 -10 66 -21 6 -11 22 -17 48 -17 32 0 40 -4 40 -19 0 -22 44 -34 90
-25 25 6 30 3 30 -14 0 -25 18 -32 80 -32 39 0 49 -4 53 -20 4 -17 14 -20 60
-20 46 0 55 -3 60 -20 4 -17 14 -20 66 -20 54 0 61 -2 61 -20 0 -18 7 -20 59
-20 50 0 59 -3 64 -20 4 -17 14 -20 66 -20 53 0 61 -2 61 -19 0 -21 47 -35 86
-25 19 5 26 1 34 -20 9 -25 13 -26 80 -26 58 0 73 -4 87 -20 13 -15 30 -20 69
-20 43 0 53 -3 57 -20 4 -17 14 -20 65 -20 58 0 60 -1 66 -30 l6 -30 200 0
201 0 6 30 c5 29 8 30 59 30 41 0 59 5 74 20 16 16 33 20 86 20 57 0 67 3 71
20 4 16 15 20 62 22 47 3 58 7 66 26 7 17 17 22 40 20 65 -4 85 1 85 22 0 18
7 20 61 20 52 0 62 3 66 20 5 17 14 20 64 20 44 0 59 4 59 14 0 16 30 26 80
26 23 0 42 7 53 20 12 15 29 20 63 20 37 0 47 4 51 20 4 16 15 20 62 22 47 3
58 7 66 26 7 17 17 22 40 20 65 -4 85 1 85 22 0 18 7 20 61 20 52 0 62 3 66
20 5 17 14 20 64 20 52 0 59 2 59 20 0 16 7 20 35 20 22 0 43 8 55 20 14 14
33 20 66 20 37 0 47 4 51 20 4 16 15 20 62 22 47 3 58 7 66 26 7 16 18 22 42
22 20 0 41 8 53 20 14 14 33 20 65 20 38 0 45 3 45 20 0 17 7 20 44 20 35 0
45 4 49 20 4 17 14 20 57 20 43 0 53 3 57 20 4 16 14 20 49 20 37 0 44 3 44
20 0 17 7 20 48 20 52 0 65 6 75 33 4 11 17 17 38 17 18 0 37 7 44 16 7 10 32
19 65 22 40 4 54 9 57 23 4 15 15 19 44 19 32 0 39 3 39 20 0 17 7 20 44 20
35 0 45 4 49 20 4 17 14 20 56 20 46 0 53 3 61 26 9 22 14 25 40 19 26 -6 31
-3 40 19 7 20 16 26 41 26 17 0 42 9 56 20 17 13 41 20 69 20 37 0 44 3 44 20
0 17 7 20 39 20 31 0 41 4 46 20 5 15 15 20 42 20 26 0 36 5 40 20 4 15 14 20
39 20 28 0 36 5 44 26 9 22 14 25 38 19 21 -4 33 -1 46 14 9 10 33 22 52 25
19 4 34 13 34 20 0 18 23 26 76 26 37 0 44 3 44 20 0 17 7 20 41 20 32 0 42 4
46 20 4 15 14 20 40 20 26 0 36 5 40 20 6 21 12 24 51 20 16 -1 25 5 29 18 5
22 29 36 44 26 17 -10 49 7 49 27 0 16 7 19 40 19 33 0 40 3 40 20 0 17 7 20
40 20 33 0 40 3 40 20 0 17 7 20 41 20 32 0 42 4 46 20 4 15 14 20 40 20 26 0
36 5 40 20 6 21 12 24 51 20 16 -1 25 5 29 18 5 22 29 36 44 26 17 -10 49 7
49 27 0 16 7 19 40 19 33 0 40 3 40 20 0 11 6 20 13 20 8 0 22 9 32 20 11 12
31 20 50 20 24 0 34 5 38 20 3 13 14 20 31 20 15 0 31 8 38 20 9 13 24 20 46
20 26 0 35 5 42 25 8 21 15 25 42 23 26 -2 35 2 43 20 8 17 18 22 47 22 31 0
38 4 38 20 0 11 6 20 13 20 7 0 20 9 30 20 10 12 29 20 47 20 19 0 33 7 40 20
6 11 20 20 30 20 11 0 29 9 40 20 11 11 33 20 50 20 24 0 33 6 40 26 9 22 14
25 40 19 26 -6 31 -3 40 19 5 14 16 26 24 26 9 0 20 9 26 20 7 13 21 20 41 20
22 0 32 5 36 20 4 16 14 20 44 20 31 0 39 4 39 18 0 11 11 24 25 30 14 6 25
16 25 22 0 5 11 10 25 10 15 0 36 11 50 26 15 16 31 24 40 20 21 -8 45 3 45
20 0 8 8 18 18 21 9 4 23 15 30 25 7 10 24 18 37 18 14 0 30 9 37 20 9 14 24
20 46 20 25 0 35 5 39 20 3 10 13 22 23 25 10 3 21 12 24 20 3 8 14 15 25 15
29 0 51 11 51 25 0 15 27 28 41 19 17 -10 49 7 49 27 0 10 6 19 13 19 7 0 20
9 30 20 9 11 29 20 43 20 17 0 28 6 31 20 3 11 11 20 18 20 6 0 20 9 30 20 10
11 28 20 41 20 13 0 29 9 36 19 8 11 28 21 48 23 27 2 36 8 38 25 2 12 12 25
22 28 10 3 21 12 24 20 3 9 19 15 42 15 27 0 37 5 41 19 3 11 13 21 24 24 10
3 19 12 19 21 0 12 10 16 40 16 33 0 40 3 40 19 0 11 9 22 19 26 10 3 21 15
24 26 5 17 11 19 40 14 30 -6 36 -4 42 14 3 12 15 26 26 31 10 6 19 17 19 25
0 11 12 15 40 15 33 0 40 4 40 19 0 10 9 21 20 24 11 3 20 12 20 21 0 12 10
16 39 16 32 0 41 4 47 23 9 29 41 51 84 57 27 4 36 10 38 27 2 12 12 25 22 28
10 3 21 12 24 20 3 8 12 15 20 15 9 0 20 9 26 20 6 11 19 20 30 20 29 0 50 11
50 25 0 8 9 17 20 20 11 3 20 13 20 21 0 15 8 17 53 14 21 -1 27 3 27 18 0 11
14 30 31 43 17 13 43 34 56 47 14 12 37 22 50 22 16 0 27 7 30 19 3 11 13 21
24 24 10 3 19 12 19 21 0 12 10 16 40 16 28 0 40 4 40 14 0 17 59 76 76 76 7
0 14 10 17 21 4 16 11 20 27 16 28 -7 50 1 50 19 0 17 47 64 65 64 7 0 17 9
20 20 5 15 15 20 41 20 24 0 37 5 41 17 9 25 55 72 71 73 6 0 12 6 12 13 0 19
67 67 94 67 15 0 26 5 26 10 0 14 55 70 68 70 6 0 16 9 22 20 6 11 19 20 30
20 27 0 50 11 50 24 0 14 48 60 73 69 9 3 17 13 17 21 0 8 9 17 19 21 11 3 22
12 25 20 3 9 18 15 36 15 20 0 33 6 37 17 8 22 45 58 68 67 9 3 19 15 22 26 3
11 11 20 18 20 6 0 20 9 30 20 10 11 23 19 29 17 15 -6 46 11 46 24 0 11 86
99 97 99 3 0 23 17 44 39 21 21 52 41 69 45 17 3 33 13 36 21 10 25 94 105
110 105 8 0 19 11 24 25 5 14 13 25 18 25 5 0 25 15 44 34 19 18 49 37 66 41
18 3 32 11 32 17 0 15 133 148 148 148 7 0 17 11 22 25 5 14 14 25 20 25 6 0
26 15 43 34 18 18 47 37 65 40 17 4 32 12 32 18 0 14 186 198 200 198 5 0 10
5 10 11 0 12 69 79 82 79 4 0 8 7 8 15 0 8 4 15 10 15 5 0 45 36 89 80 47 47
89 80 100 80 11 0 26 7 33 16 7 9 230 234 496 501 265 266 482 491 482 499 0
9 35 50 78 92 43 43 81 85 85 94 3 10 13 18 22 18 8 0 15 5 15 11 0 12 69 79
82 79 4 0 8 9 8 20 0 11 4 20 8 20 15 0 202 192 202 207 0 9 17 32 38 52 21
20 41 44 45 53 4 10 13 18 21 18 7 0 16 9 19 20 3 11 12 20 21 20 9 0 16 6 16
14 0 8 6 21 14 28 72 67 116 114 116 126 0 8 18 32 40 53 22 22 40 43 40 49 0
5 9 14 20 20 11 6 20 15 20 21 0 6 29 38 65 71 36 33 65 69 65 79 0 10 9 24
20 31 11 7 20 18 20 25 0 7 9 17 20 23 11 6 20 15 20 21 0 6 29 39 65 74 36
36 65 73 65 84 0 11 9 22 20 26 11 3 20 15 20 26 0 10 7 19 15 19 9 0 19 10
24 23 5 12 25 35 45 52 22 18 36 39 36 52 0 12 9 27 19 33 11 5 23 19 26 30 3
11 13 20 21 20 8 0 19 11 24 24 5 13 25 37 44 53 22 17 36 37 36 51 0 12 7 25
16 29 8 3 20 16 25 29 4 13 15 24 24 24 8 0 15 6 15 13 0 8 20 33 45 56 25 23
45 51 45 61 0 11 9 24 20 30 11 6 20 18 20 28 1 9 19 31 40 47 24 19 39 38 40
52 0 13 9 28 20 35 11 7 20 20 20 28 0 8 20 32 45 54 25 21 45 47 45 57 0 10
9 23 20 29 11 6 20 18 20 28 0 9 18 32 40 51 22 19 40 42 40 52 0 11 9 24 20
31 11 7 20 19 20 27 0 8 20 34 45 58 30 28 45 50 45 68 0 16 6 25 15 25 9 0
20 11 25 25 5 14 17 28 25 31 8 4 15 17 15 30 0 13 9 28 20 34 11 6 20 16 20
23 0 7 18 29 39 49 26 24 42 48 46 72 4 20 10 36 14 36 18 0 71 64 71 86 0 17
7 28 20 31 11 3 20 14 20 24 0 10 9 23 20 29 11 6 20 20 20 30 0 11 9 25 20
32 11 7 20 21 20 30 0 10 9 23 20 30 11 7 20 18 20 25 0 6 11 25 25 41 14 17
25 35 25 41 0 5 9 15 20 21 11 6 20 21 20 35 0 15 7 26 20 30 11 3 20 15 20
26 0 10 9 24 20 31 11 7 20 23 20 35 0 12 9 27 20 33 11 6 20 17 20 24 0 7 9
21 19 30 11 10 22 28 25 41 4 14 15 29 26 35 11 6 20 18 20 28 0 9 9 23 20 30
12 7 20 23 20 38 0 17 7 28 20 31 11 3 20 14 20 24 0 10 9 23 20 29 13 7 20
21 20 40 0 19 7 33 20 40 11 6 20 20 20 30 0 11 9 25 20 32 11 7 20 18 20 25
0 7 11 24 25 39 14 15 25 34 25 43 0 9 9 22 20 29 11 7 20 19 20 27 0 8 9 20
20 27 12 8 20 24 20 40 0 17 8 33 20 40 11 7 20 23 20 35 0 12 9 27 20 33 11
6 20 17 20 25 0 8 9 22 19 32 11 10 23 32 27 48 4 17 16 36 26 43 10 7 18 22
18 32 0 11 9 24 20 30 11 6 20 19 20 30 0 11 9 24 20 30 13 7 20 21 20 40 0
19 7 34 20 42 11 7 20 23 20 35 0 12 9 27 20 33 11 6 20 17 20 25 0 8 9 20 20
28 11 8 23 28 26 45 3 17 15 39 25 48 11 9 19 29 19 43 0 15 8 31 20 39 11 7
20 21 20 32 0 10 9 24 20 30 11 6 20 19 20 30 0 11 9 24 20 30 13 7 20 21 20
40 0 19 7 33 20 40 13 7 20 21 20 40 0 17 8 34 19 42 11 8 23 27 27 43 4 17
15 38 25 48 11 10 19 26 19 35 0 9 9 23 20 30 13 8 20 23 20 42 0 19 7 33 20
40 11 6 20 18 20 28 0 9 9 23 20 30 13 8 20 23 20 42 0 19 7 33 20 40 13 7 20
21 20 40 0 17 8 34 19 42 11 8 23 27 27 43 4 17 15 38 25 48 11 10 19 29 19
42 0 14 8 29 20 35 13 7 20 21 20 40 0 19 7 34 20 42 12 8 20 24 20 39 0 14 9
34 20 44 11 10 20 31 20 46 0 18 7 32 20 39 13 7 20 21 20 40 0 19 7 33 19 40
11 5 23 24 26 42 4 18 16 41 26 51 11 10 19 29 19 42 0 14 8 29 20 35 13 7 20
21 20 40 0 19 7 34 20 42 12 8 20 24 20 39 0 14 9 34 20 44 11 10 20 31 20 46
0 18 7 32 20 39 13 7 20 21 20 40 0 19 7 33 19 40 11 5 23 24 26 42 4 18 16
41 26 51 11 10 19 29 19 42 0 14 8 29 20 35 15 8 20 21 20 55 0 34 5 47 20 55
15 8 20 21 20 50 0 29 5 42 20 50 13 7 20 21 20 40 0 19 7 33 20 40 13 7 20
21 20 40 0 18 8 34 21 43 13 10 23 30 26 59 4 25 14 48 25 56 11 8 18 25 18
46 0 20 8 40 20 51 11 10 20 31 20 46 0 18 7 32 20 39 13 7 20 21 20 40 0 19
7 33 20 40 16 8 20 21 20 60 0 39 4 53 20 62 12 8 20 24 20 40 0 17 8 33 20
40 13 9 22 28 26 61 5 32 13 51 25 58 14 7 19 21 19 49 0 29 5 42 20 50 15 8
20 21 20 55 0 35 4 45 20 50 16 5 20 15 20 46 0 28 6 42 20 51 15 10 20 24 20
55 0 32 5 46 20 55 14 9 20 24 20 49 0 26 6 41 21 50 15 10 22 29 26 64 4 30
13 57 24 68 11 10 19 29 19 42 0 14 9 30 20 37 16 10 20 24 20 63 0 39 4 53
20 63 16 9 20 23 20 62 0 39 4 52 20 60 15 8 20 21 20 55 0 34 5 47 20 55 14
7 20 21 20 42 0 19 9 41 21 55 14 14 24 40 27 73 3 36 10 54 23 61 15 7 19 21
19 59 0 39 4 52 20 60 16 8 20 21 20 59 0 35 5 53 20 66 15 13 20 31 20 66 0
38 4 51 20 59 16 8 20 21 20 60 0 39 4 53 20 62 15 10 20 24 20 57 0 32 6 51
21 68 14 14 24 40 27 73 3 36 10 54 23 61 15 7 19 21 19 59 0 39 4 52 20 60
17 9 20 21 20 74 0 50 4 67 20 81 15 14 20 31 20 71 0 43 4 55 20 64 16 8 20
21 20 60 0 39 4 53 20 62 17 11 20 24 20 79 0 57 4 70 25 93 18 20 25 38 25
69 0 30 6 48 20 60 16 14 20 29 20 84 0 57 3 70 20 81 17 10 20 23 20 82 0 59
3 71 20 80 17 9 20 21 20 74 0 50 4 67 20 81 15 14 20 31 20 71 0 43 4 55 20
64 17 9 20 21 20 80 0 57 3 71 20 83 15 11 20 30 26 98 4 58 12 92 25 111 14
20 19 45 19 95 0 57 3 70 20 81 17 10 20 23 20 82 0 59 3 71 20 80 18 10 20
21 20 105 0 84 2 95 20 105 17 9 20 21 20 89 0 62 4 83 19 102 14 19 20 45 22
111 3 68 8 90 24 108 16 17 21 40 24 103 2 61 8 88 22 106 15 19 19 41 19 112
0 78 2 90 20 99 18 10 20 21 20 114 0 88 3 107 20 129 17 21 20 40 20 126 0
89 2 103 20 118 18 16 20 30 20 135 0 107 2 118 20 128 18 10 20 21 20 140 0
119 2 131 21 149 19 17 22 34 27 153 4 114 8 135 23 146 17 12 19 29 19 176 0
149 2 165 20 186 18 21 20 37 20 196 0 163 1 175 20 186 19 12 20 24 20 230 0
207 1 218 20 228 19 10 20 21 20 291 l0 280 30 17 30 17 0 8413 0 8412 -18960
0 -18960 0 0 -8583z m8196 6843 l6464 0 0 -9400 0 -9400 815 0 815 0 0 9400 0
9400 925 0 925 0 0 -10780 0 -10780 815 0 815 0 0 10780 0 10780 775 0 775 0
0 -9400 0 -9400 815 0 815 0 0 9400 0 9400 5994 0 c3297 0 6001 3 6010 6 11 4
19 -2 26 -20 l10 -26 606 0 606 0 -5 -7251 c-5 -7021 -6 -7251 -24 -7264 -17
-12 -18 -37 -20 -356 -3 -319 -4 -344 -21 -360 -16 -14 -20 -39 -26 -139 -4
-68 -4 -179 0 -247 7 -121 6 -124 -17 -149 -22 -23 -23 -31 -26 -216 -3 -165
-6 -193 -21 -204 -14 -10 -17 -35 -19 -164 -2 -127 -5 -156 -19 -171 -14 -16
-18 -46 -21 -166 -3 -122 -6 -150 -21 -166 -14 -16 -17 -40 -17 -142 0 -109
-2 -125 -20 -145 -17 -19 -21 -41 -25 -136 -3 -80 -9 -117 -18 -123 -22 -13
-34 -90 -27 -167 7 -67 6 -72 -16 -88 -22 -15 -24 -23 -26 -122 -1 -89 -4
-108 -20 -119 -15 -11 -18 -28 -19 -102 -1 -111 -1 -113 -18 -113 -10 0 -16
-19 -21 -60 -4 -33 -10 -60 -13 -60 -7 0 -103 27 -162 46 -25 8 -53 14 -64 14
-10 0 -39 6 -65 14 -25 8 -73 22 -106 31 -33 9 -81 23 -106 31 -26 7 -56 14
-67 14 -11 0 -44 8 -74 19 -29 10 -87 27 -128 36 -74 17 -123 31 -219 60 -27
8 -56 15 -66 15 -10 0 -38 6 -64 14 -51 16 -122 36 -221 61 -36 9 -94 25 -130
35 -36 10 -94 26 -130 35 -90 23 -167 44 -221 61 -26 8 -56 14 -68 14 -11 0
-38 6 -58 14 -45 16 -115 35 -283 76 -25 6 -65 18 -89 27 -43 16 -43 16 -61
-7 -17 -22 -15 -26 64 -185 45 -90 86 -173 92 -186 6 -13 18 -37 27 -54 9 -16
91 -183 182 -370 180 -369 174 -356 197 -400 9 -16 80 -160 158 -320 77 -159
145 -298 151 -307 20 -39 32 -63 169 -343 157 -322 162 -332 178 -360 6 -11
74 -150 152 -310 78 -159 146 -299 152 -310 7 -11 18 -32 25 -47 7 -16 19 -40
26 -55 7 -16 18 -37 25 -48 56 -102 68 -189 32 -225 -13 -13 -20 -33 -20 -56
0 -35 -14 -73 -32 -85 -5 -3 -12 -28 -17 -56 -4 -28 -15 -59 -24 -68 -11 -10
-17 -33 -17 -60 0 -34 -5 -47 -19 -55 -11 -5 -22 -10 -25 -10 -2 0 -23 39 -46
88 -22 48 -47 98 -56 112 -8 14 -22 41 -30 60 -8 19 -18 42 -23 50 -22 41 -31
58 -50 97 -11 23 -24 50 -30 60 -5 10 -60 122 -121 248 -61 127 -118 241 -125
255 -8 14 -22 41 -30 60 -9 19 -20 43 -25 53 -6 9 -14 25 -20 35 -5 9 -16 33
-24 52 -8 19 -21 46 -29 60 -7 14 -22 41 -31 60 -10 19 -24 46 -31 60 -7 14
-63 129 -125 255 -62 127 -117 239 -123 250 -6 11 -29 56 -50 100 -22 44 -48
97 -58 117 -10 20 -22 45 -27 55 -20 41 -39 79 -49 98 -7 11 -40 79 -74 150
-65 135 -92 175 -118 175 -9 0 -63 -57 -121 -127 -1427 -1745 -1800 -2205
-1800 -2217 0 -18 52 -56 76 -56 10 0 49 -9 88 -21 39 -12 87 -25 106 -29 19
-5 65 -18 103 -29 37 -12 75 -21 83 -21 9 0 37 -7 63 -15 25 -8 75 -21 111
-30 36 -9 89 -23 118 -31 132 -36 223 -59 282 -73 41 -10 166 -44 265 -72 39
-11 81 -22 95 -25 14 -3 48 -11 75 -19 28 -8 79 -21 115 -30 36 -9 88 -23 115
-30 28 -8 79 -21 115 -30 36 -9 94 -25 130 -35 36 -10 88 -24 115 -30 28 -6
79 -20 115 -30 36 -10 94 -26 130 -35 90 -23 167 -44 221 -61 26 -8 55 -14 65
-14 11 0 39 -6 64 -14 25 -8 74 -22 110 -31 36 -9 88 -22 115 -30 28 -7 66
-17 85 -22 30 -8 35 -13 38 -42 2 -23 -2 -37 -12 -43 -10 -6 -16 -22 -16 -43
0 -24 -7 -39 -22 -49 -17 -12 -23 -26 -23 -61 -1 -36 -6 -48 -29 -66 -26 -21
-32 -21 -70 -10 -22 7 -59 16 -81 20 -22 4 -65 16 -95 25 -116 38 -146 46
-164 46 -10 0 -39 6 -65 14 -25 8 -73 22 -106 31 -33 9 -81 23 -106 31 -26 7
-55 14 -65 14 -11 0 -39 6 -64 14 -107 34 -186 56 -199 56 -7 0 -36 7 -65 16
-124 38 -145 44 -161 44 -10 0 -39 7 -66 15 -27 8 -71 22 -98 30 -27 8 -57 15
-67 15 -10 0 -36 6 -59 14 -22 7 -60 19 -85 25 -244 63 -289 75 -391 107 -26
8 -54 14 -64 14 -10 0 -38 6 -64 14 -91 28 -209 60 -288 76 -23 5 -58 16 -78
25 -21 8 -46 15 -57 15 -11 0 -41 6 -67 14 -25 8 -72 22 -104 30 -31 9 -81 22
-110 30 -84 23 -139 37 -182 46 -22 5 -74 19 -115 31 -41 11 -94 25 -117 30
-23 4 -58 15 -78 24 -21 8 -46 15 -57 15 -11 0 -41 7 -67 15 -25 8 -75 21
-111 30 -87 22 -165 43 -221 61 -26 8 -54 14 -63 14 -10 0 -45 9 -79 20 -34
11 -87 26 -117 34 -30 7 -84 21 -120 31 -36 9 -85 23 -110 31 -25 8 -53 14
-64 14 -10 0 -39 6 -65 14 -25 8 -73 22 -106 31 -33 9 -81 23 -106 31 -26 7
-55 14 -65 14 -11 0 -46 9 -79 19 -129 41 -163 51 -180 51 -10 0 -40 7 -69 16
-124 38 -145 44 -161 44 -10 0 -38 6 -64 14 -60 19 -169 50 -251 71 -36 9 -85
23 -110 31 -25 8 -53 14 -64 14 -10 0 -39 7 -65 14 -25 8 -73 22 -106 31 -33
9 -81 23 -106 31 -26 8 -56 14 -67 14 -11 0 -36 7 -56 15 -20 9 -49 17 -64 19
-15 2 -49 11 -75 20 -26 9 -55 16 -64 16 -8 0 -38 7 -67 16 -28 9 -71 22 -96
30 -25 8 -53 14 -64 14 -10 0 -39 6 -65 14 -55 17 -133 39 -221 61 -36 9 -94
25 -130 35 -36 10 -94 26 -130 35 -88 22 -166 44 -221 61 -26 8 -54 14 -64 14
-10 0 -38 6 -64 14 -51 16 -122 36 -221 61 -84 22 -193 52 -251 71 -26 8 -54
14 -64 14 -10 0 -38 7 -64 15 -25 8 -75 21 -111 30 -96 24 -168 44 -237 65
-34 11 -69 20 -79 20 -9 0 -37 7 -63 14 -43 14 -88 26 -213 60 -94 25 -143 37
-168 42 -14 3 -49 11 -77 19 -29 8 -77 21 -105 29 -29 8 -89 24 -133 36 -151
41 -180 49 -245 65 -36 9 -85 23 -110 31 -25 7 -71 17 -103 20 l-57 7 22 -59
c12 -32 30 -71 40 -86 10 -14 18 -30 18 -34 0 -4 63 -136 141 -293 77 -157
144 -293 148 -301 4 -8 15 -28 23 -45 14 -26 26 -50 66 -132 18 -38 39 -79 49
-98 6 -11 75 -150 153 -310 78 -159 148 -301 156 -315 8 -14 22 -41 30 -60 8
-19 19 -43 24 -52 6 -10 14 -26 20 -35 5 -10 16 -34 24 -53 8 -19 22 -46 30
-60 8 -14 65 -128 126 -255 131 -270 122 -252 143 -290 8 -16 104 -210 212
-430 215 -437 205 -417 228 -460 8 -16 91 -183 182 -370 190 -388 176 -361
197 -400 9 -16 91 -183 183 -370 193 -395 177 -362 198 -400 8 -16 104 -210
212 -430 212 -432 204 -416 228 -460 8 -16 90 -183 182 -370 171 -351 184
-376 202 -410 6 -11 21 -39 32 -62 11 -23 24 -50 30 -60 5 -10 71 -144 146
-298 149 -307 156 -321 173 -350 6 -11 18 -36 26 -55 8 -19 21 -46 29 -60 9
-14 79 -155 157 -315 78 -159 146 -299 153 -310 6 -11 16 -31 22 -45 21 -44
41 -84 52 -105 6 -11 50 -101 98 -200 48 -99 93 -191 101 -205 31 -55 144
-289 144 -297 0 -5 11 -25 24 -44 14 -20 28 -48 31 -62 9 -33 60 -81 79 -74 8
3 185 214 393 469 209 255 993 1215 1744 2133 751 919 1639 2005 1974 2415
335 410 645 789 689 843 65 80 81 95 89 82 6 -12 3 -23 -12 -39 -12 -12 -21
-32 -21 -44 0 -12 -10 -32 -22 -44 -13 -13 -22 -36 -24 -61 -2 -27 -11 -49
-29 -67 -19 -20 -25 -34 -20 -48 4 -15 0 -24 -15 -32 -13 -7 -20 -21 -20 -39
0 -15 -9 -36 -20 -46 -11 -10 -20 -28 -20 -41 0 -13 -9 -32 -21 -43 -12 -11
-23 -37 -26 -60 -4 -27 -13 -45 -25 -52 -16 -8 -19 -18 -14 -40 3 -16 1 -29
-4 -29 -12 0 -40 -54 -40 -77 0 -10 -9 -24 -20 -31 -13 -8 -20 -23 -20 -42 0
-19 -7 -34 -20 -42 -12 -8 -20 -24 -20 -39 0 -14 -9 -34 -20 -44 -11 -10 -20
-29 -20 -42 0 -13 -9 -31 -20 -40 -11 -10 -20 -26 -20 -36 0 -11 -11 -32 -25
-49 -14 -16 -25 -36 -25 -44 0 -8 -24 -45 -52 -82 -29 -37 -876 -1075 -1883
-2306 -1006 -1231 -1831 -2246 -1833 -2256 -4 -21 39 -51 88 -61 19 -4 71 -17
115 -29 44 -12 99 -26 123 -31 23 -5 51 -13 61 -19 11 -5 30 -10 42 -10 11 0
42 -7 68 -15 25 -8 65 -19 89 -25 l42 -11 -22 -32 c-13 -18 -25 -34 -28 -37
-20 -18 -80 -100 -91 -124 -8 -16 -22 -34 -33 -40 -10 -6 -30 -21 -44 -34 -31
-27 -36 -27 -125 -2 -40 12 -97 28 -127 36 -30 9 -76 22 -101 30 -26 8 -56 14
-67 14 -22 0 -79 21 -132 49 -30 16 -50 18 -133 14 -54 -3 -100 -10 -103 -15
-5 -8 57 -147 109 -243 43 -81 197 -400 197 -408 0 -19 -82 -116 -199 -236
-121 -123 -124 -125 -134 -101 -15 36 -32 72 -45 95 -6 11 -29 58 -51 105 -23
47 -47 96 -55 110 -8 14 -67 133 -131 265 -64 132 -123 251 -131 265 -7 14
-30 59 -50 100 -42 90 -57 118 -72 145 -6 11 -18 36 -26 55 -8 19 -21 46 -29
60 -8 14 -54 106 -102 205 -48 99 -92 189 -98 200 -6 11 -31 61 -55 110 -41
86 -49 102 -72 143 -5 9 -16 33 -24 52 -8 19 -21 46 -30 60 -8 14 -53 106
-101 205 -48 99 -94 191 -102 205 -8 14 -21 41 -29 60 -8 19 -20 44 -26 55
-27 45 -88 171 -88 180 0 6 -11 26 -24 45 -13 19 -27 46 -31 60 -8 28 -85 150
-95 150 -14 0 -102 -107 -909 -1095 -463 -566 -840 -1036 -839 -1044 2 -9 34
-24 83 -39 44 -13 107 -32 140 -43 33 -10 68 -19 79 -19 10 0 39 -6 65 -14 55
-17 132 -38 221 -61 36 -9 88 -22 115 -30 28 -8 61 -16 75 -19 14 -3 59 -15
100 -26 41 -12 93 -25 115 -29 22 -4 63 -15 90 -24 28 -9 79 -23 115 -32 87
-22 165 -43 221 -61 26 -8 54 -14 64 -14 10 0 38 -7 64 -15 25 -8 75 -21 111
-30 36 -9 88 -22 115 -30 28 -7 79 -21 115 -30 36 -9 94 -25 130 -35 36 -10
94 -26 130 -35 99 -25 170 -45 221 -61 26 -8 54 -14 64 -14 10 0 38 -6 64 -14
70 -22 217 -61 286 -76 22 -5 72 -18 110 -29 193 -54 233 -64 263 -68 17 -3
32 -10 32 -15 0 -10 -969 -983 -980 -983 -16 -1 -70 -51 -65 -63 2 -7 1 -11
-4 -8 -5 3 -61 -46 -125 -110 -77 -76 -122 -114 -132 -110 -9 3 -17 -1 -21
-12 -7 -20 -142 -152 -156 -152 -5 0 -46 -38 -92 -85 -53 -55 -90 -85 -104
-85 -12 0 -24 -8 -28 -18 -3 -9 -20 -29 -37 -44 -17 -15 -39 -35 -49 -45 -10
-10 -21 -18 -25 -18 -4 0 -33 -26 -65 -58 -32 -31 -60 -57 -64 -57 -3 0 -4
431 -2 958 l4 957 -36 -1 c-34 -1 -58 -10 -174 -64 -41 -19 -109 -50 -205 -93
-82 -36 -157 -70 -232 -106 -37 -17 -73 -31 -81 -31 -8 0 -25 -8 -38 -19 -13
-10 -35 -22 -49 -26 -14 -4 -70 -29 -125 -55 -55 -26 -111 -51 -125 -55 -14
-4 -32 -13 -40 -20 -8 -7 -26 -16 -40 -20 -14 -4 -54 -21 -90 -38 -89 -41
-165 -75 -230 -104 -30 -14 -73 -33 -95 -43 -22 -10 -71 -33 -110 -50 -38 -17
-88 -40 -110 -50 -22 -10 -71 -33 -110 -50 -38 -17 -88 -40 -110 -50 -22 -10
-65 -29 -95 -43 -71 -32 -181 -82 -250 -114 -30 -14 -77 -36 -105 -48 -27 -12
-75 -33 -105 -47 -30 -14 -75 -34 -100 -45 -25 -11 -74 -34 -110 -51 -73 -34
-149 -68 -230 -105 -30 -13 -85 -39 -121 -56 -36 -17 -71 -31 -78 -31 -7 0
-25 -8 -39 -19 -15 -10 -38 -22 -52 -26 -24 -7 -52 -20 -252 -114 -48 -23 -90
-41 -93 -41 -4 0 -36 -14 -73 -31 -92 -44 -251 -116 -342 -156 -30 -14 -73
-33 -95 -43 -22 -10 -71 -33 -110 -50 -38 -17 -88 -40 -110 -50 -22 -10 -71
-33 -110 -50 -38 -17 -88 -40 -110 -50 -22 -10 -71 -33 -110 -50 -38 -17 -88
-40 -110 -50 -22 -10 -67 -31 -100 -45 -33 -15 -82 -37 -110 -50 -27 -13 -77
-35 -110 -50 -33 -15 -87 -39 -120 -54 -33 -15 -85 -39 -115 -53 -30 -13 -79
-35 -109 -49 -93 -41 -195 -96 -198 -105 -3 -10 98 -74 117 -74 7 0 33 -11 59
-24 25 -13 78 -38 116 -56 39 -17 88 -40 110 -50 22 -10 67 -31 100 -45 97
-44 166 -75 230 -105 85 -40 159 -74 240 -110 39 -17 88 -40 110 -50 22 -10
72 -33 110 -50 39 -17 95 -43 125 -57 30 -14 78 -36 105 -49 28 -12 79 -36
115 -52 75 -35 163 -75 235 -107 97 -44 171 -78 219 -101 28 -13 55 -24 62
-24 6 0 22 -8 35 -19 13 -10 35 -22 49 -26 14 -4 70 -28 125 -55 55 -26 111
-51 125 -55 14 -4 32 -13 40 -20 8 -7 33 -18 55 -25 22 -7 51 -21 64 -31 13
-11 29 -19 37 -19 11 0 121 -49 296 -133 46 -21 61 -37 35 -37 -6 0 -27 -16
-46 -36 -24 -27 -41 -37 -63 -36 -19 0 -31 -5 -36 -16 -9 -25 -31 -44 -44 -40
-15 5 -76 -35 -96 -63 -10 -15 -21 -19 -39 -14 -19 4 -26 1 -30 -14 -3 -11
-14 -23 -24 -26 -10 -4 -19 -13 -19 -21 0 -10 -12 -14 -40 -14 -22 0 -40 -4
-40 -9 0 -21 -33 -42 -57 -36 -17 4 -25 1 -30 -12 -4 -10 -19 -31 -34 -46 -21
-21 -34 -26 -53 -21 -19 4 -27 1 -37 -18 -16 -31 -29 -38 -57 -31 -18 4 -24 1
-29 -16 -3 -12 -16 -24 -32 -27 -14 -4 -43 -24 -64 -46 -33 -34 -43 -38 -71
-33 -28 6 -34 3 -44 -20 -10 -22 -18 -26 -38 -22 -19 3 -29 -2 -46 -25 -13
-19 -27 -28 -38 -25 -11 3 -34 -10 -60 -34 -29 -27 -52 -39 -72 -39 -21 0 -31
-6 -35 -20 -5 -20 -19 -25 -56 -22 -11 1 -21 -6 -24 -18 -5 -19 -11 -21 -55
-24 -10 -1 -25 -11 -33 -23 -9 -13 -26 -23 -39 -23 -12 0 -40 -18 -64 -41 -23
-22 -50 -39 -60 -38 -32 3 -40 -1 -45 -21 -3 -13 -14 -20 -29 -20 -28 0 -42
-9 -51 -33 -5 -15 -13 -17 -42 -11 -31 6 -37 4 -42 -15 -4 -16 -13 -21 -40
-21 -26 0 -36 -5 -40 -20 -4 -15 -14 -20 -39 -20 -25 0 -38 -7 -50 -26 -11
-15 -23 -23 -32 -19 -21 8 -52 -4 -52 -20 0 -20 -32 -35 -58 -28 -16 4 -22 1
-22 -10 0 -21 -17 -30 -51 -29 -19 0 -30 -5 -34 -19 -5 -14 -16 -19 -42 -19
-26 0 -36 -5 -40 -20 -4 -15 -14 -20 -40 -20 -26 0 -36 -5 -40 -20 -4 -15 -14
-20 -39 -20 -25 0 -38 -7 -50 -26 -11 -15 -23 -23 -32 -19 -23 9 -49 -4 -55
-26 -4 -14 -13 -20 -29 -19 -39 4 -45 1 -51 -20 -4 -15 -14 -20 -42 -20 -28 0
-38 -5 -42 -19 -4 -14 -18 -21 -59 -26 -32 -4 -57 -13 -62 -22 -5 -8 -24 -16
-43 -18 -21 -1 -35 -8 -37 -18 -3 -16 -47 -32 -62 -22 -5 3 -17 -6 -26 -20
-10 -16 -23 -24 -32 -20 -23 9 -49 -4 -55 -26 -4 -14 -13 -20 -29 -19 -39 4
-46 1 -53 -19 -4 -14 -18 -20 -57 -23 -33 -4 -56 -12 -64 -23 -7 -9 -28 -18
-46 -19 -22 -1 -34 -7 -36 -19 -3 -13 -14 -17 -42 -17 -29 0 -40 -5 -45 -19
-4 -14 -19 -20 -61 -26 -33 -4 -57 -12 -61 -21 -3 -8 -9 -14 -14 -14 -5 0 -9
602 -9 1440 0 1145 -3 1440 -12 1441 -40 3 -79 -5 -128 -28 -30 -14 -80 -37
-110 -51 -30 -14 -80 -36 -110 -50 -30 -14 -80 -36 -110 -49 -30 -14 -73 -33
-95 -43 -22 -10 -71 -33 -110 -50 -38 -17 -88 -40 -110 -50 -22 -10 -71 -33
-110 -50 -38 -17 -92 -42 -120 -55 -27 -13 -77 -35 -110 -50 -33 -15 -85 -38
-115 -52 -30 -14 -80 -37 -110 -50 -30 -14 -80 -37 -110 -50 -30 -14 -80 -37
-110 -50 -30 -14 -77 -36 -105 -48 -27 -13 -81 -38 -120 -55 -38 -17 -88 -40
-110 -50 -22 -10 -71 -33 -110 -50 -38 -17 -88 -40 -110 -50 -22 -10 -67 -31
-100 -45 -91 -41 -153 -69 -225 -102 -36 -17 -76 -34 -90 -38 -14 -4 -32 -13
-40 -20 -8 -7 -33 -18 -55 -25 -22 -7 -46 -17 -53 -23 -13 -10 -76 -38 -167
-75 -22 -8 -47 -21 -55 -28 -8 -6 -26 -15 -40 -19 -14 -4 -54 -21 -90 -38 -36
-16 -90 -41 -120 -54 -30 -14 -71 -33 -90 -43 -19 -10 -52 -23 -73 -30 -32
-10 -37 -16 -37 -41 0 -23 6 -32 28 -41 15 -6 78 -35 140 -65 62 -29 119 -53
126 -53 7 0 24 -8 37 -19 13 -10 42 -24 64 -31 22 -7 47 -18 55 -25 8 -7 26
-16 40 -20 14 -4 70 -29 126 -56 55 -26 113 -51 127 -54 14 -4 31 -13 38 -21
6 -8 17 -14 24 -14 7 0 39 -13 71 -30 32 -16 62 -30 66 -30 4 0 55 -23 115
-51 105 -49 165 -77 268 -124 50 -22 109 -49 220 -99 33 -15 87 -40 120 -56
33 -15 85 -39 115 -53 87 -39 192 -87 235 -107 22 -10 67 -30 100 -45 33 -15
89 -41 125 -57 36 -17 83 -38 105 -48 37 -17 73 -33 225 -103 30 -14 87 -39
125 -57 39 -17 88 -40 110 -50 22 -10 72 -33 110 -50 39 -17 90 -41 115 -54
25 -13 59 -27 75 -31 29 -7 29 -7 8 -16 -13 -4 -23 -15 -23 -24 0 -11 -11 -15
-41 -15 -32 0 -42 -4 -46 -20 -5 -20 -13 -22 -93 -24 -14 -1 -26 -8 -28 -17
-2 -12 -18 -19 -57 -24 -32 -4 -56 -12 -59 -21 -3 -8 -19 -14 -40 -14 -24 0
-39 -7 -50 -21 -16 -24 -30 -22 -111 16 -27 13 -81 38 -120 55 -38 18 -97 45
-130 60 -33 16 -85 39 -115 53 -109 49 -176 80 -224 103 -28 13 -55 24 -60 24
-6 0 -22 9 -36 20 -14 11 -31 20 -39 20 -7 0 -50 18 -95 39 -171 82 -254 120
-279 126 -15 4 -31 13 -38 21 -6 8 -17 14 -23 14 -7 0 -34 11 -62 24 -27 13
-76 36 -109 50 -33 15 -87 40 -120 56 -33 15 -91 42 -130 60 -38 17 -88 40
-110 50 -22 10 -71 33 -110 50 -38 17 -92 42 -120 55 -144 66 -220 102 -350
160 -33 15 -82 37 -110 50 -27 13 -77 36 -110 50 -33 15 -82 38 -109 51 -28
13 -55 24 -62 24 -6 0 -22 8 -35 19 -13 10 -42 24 -64 31 -22 7 -47 18 -55 25
-8 7 -26 16 -40 20 -14 4 -41 15 -60 25 -19 10 -66 32 -105 49 -38 17 -91 42
-118 56 -54 29 -112 33 -121 9 -3 -9 -6 -318 -6 -687 0 -419 -4 -666 -10 -657
-5 8 -17 15 -27 16 -10 0 -35 1 -55 2 -31 2 -38 6 -38 22 0 17 -7 20 -39 20
-30 0 -40 4 -44 19 -3 15 -13 19 -37 19 -22 -1 -38 6 -49 20 -15 19 -27 22
-113 31 -5 1 -8 7 -8 15 0 16 -21 26 -55 26 -13 0 -28 8 -34 17 -5 9 -20 18
-33 18 -81 4 -86 5 -91 26 -5 18 -12 21 -41 17 -29 -3 -36 -1 -38 17 -2 15
-12 21 -42 23 -28 3 -40 8 -43 23 -5 16 -11 19 -30 14 -17 -4 -30 1 -47 20
-18 19 -36 27 -70 29 -35 2 -50 8 -62 24 -10 15 -26 22 -48 22 -25 0 -35 5
-39 20 -4 15 -14 20 -40 20 -27 0 -36 5 -40 21 -3 12 -13 20 -24 19 -38 -4
-52 1 -58 20 -5 15 -12 19 -30 14 -16 -4 -30 1 -46 17 -15 15 -33 22 -49 21
-20 -2 -29 3 -38 23 -10 22 -17 26 -37 21 -17 -4 -28 0 -42 17 -10 13 -35 27
-55 31 -20 3 -38 13 -41 20 -3 8 -29 16 -60 20 -43 6 -56 12 -60 27 -4 14 -14
19 -40 19 -27 0 -37 5 -42 21 -6 17 -13 20 -41 17 -19 -2 -34 0 -34 5 0 4 -4
6 -9 3 -5 -4 -7 3 -4 14 5 20 -6 25 -49 21 -44 -5 -27 42 20 54 14 3 56 20 92
37 126 58 166 76 225 103 33 14 78 35 100 45 22 10 72 33 110 50 39 17 88 40
110 50 138 65 173 80 186 80 8 0 25 9 39 20 14 11 30 20 36 20 5 0 32 11 60
24 27 13 87 41 134 61 84 36 104 45 230 103 36 17 92 42 125 57 33 15 78 35
100 45 51 24 132 60 220 100 39 17 88 40 110 50 102 48 178 80 190 80 7 0 18
7 25 14 6 8 28 20 48 26 20 7 83 34 139 61 57 27 107 49 113 49 5 0 31 11 57
24 27 14 60 29 76 35 21 8 27 17 27 40 0 25 -5 31 -37 41 -21 7 -58 23 -83 35
-47 24 -110 53 -225 105 -38 18 -88 40 -110 50 -22 10 -71 33 -110 51 -38 17
-92 42 -119 55 -28 13 -55 24 -62 24 -6 0 -22 8 -35 19 -13 10 -35 22 -49 26
-14 4 -56 22 -95 40 -38 18 -108 51 -155 73 -47 22 -96 43 -110 47 -14 4 -36
16 -49 26 -13 11 -30 19 -38 19 -9 0 -36 10 -62 23 -71 36 -149 73 -226 107
-38 17 -88 40 -110 50 -22 10 -71 33 -110 50 -38 17 -92 42 -120 55 -27 13
-79 37 -115 53 -36 16 -90 41 -120 55 -30 14 -82 37 -115 52 -33 15 -82 38
-109 51 -28 13 -55 24 -60 24 -6 0 -22 9 -36 20 -14 11 -30 20 -37 20 -11 0
-54 19 -271 122 -79 37 -182 71 -191 63 -3 -4 -8 -536 -11 -1183 -3 -647 -6
-1171 -8 -1163 -1 9 -10 11 -27 7 -20 -5 -31 0 -50 20 -16 18 -30 24 -43 19
-15 -4 -26 2 -42 25 -16 23 -29 30 -55 30 -24 0 -34 5 -38 20 -4 15 -14 20
-41 20 -25 0 -36 5 -36 14 0 8 -9 17 -19 21 -11 3 -22 12 -25 20 -3 8 -15 15
-26 15 -29 0 -60 18 -60 35 0 9 -10 14 -27 14 -50 0 -61 4 -56 19 8 19 -13 30
-51 27 -28 -3 -32 0 -32 18 1 18 -6 23 -34 25 -19 2 -43 12 -53 23 -10 10 -22
19 -26 19 -5 0 -11 9 -14 21 -3 12 -10 18 -17 14 -19 -12 -57 4 -63 26 -5 18
-10 20 -37 14 -27 -6 -35 -2 -72 36 -23 24 -51 43 -61 44 -11 0 -25 9 -31 20
-15 28 -25 33 -47 28 -12 -4 -29 4 -44 18 -48 47 -65 59 -82 59 -23 0 -38 11
-46 32 -3 10 -14 17 -24 16 -37 -3 -53 2 -53 17 0 9 -8 19 -17 22 -9 4 -25 15
-35 25 -9 9 -24 15 -32 12 -9 -3 -23 7 -37 26 -17 23 -29 30 -45 26 -22 -6
-75 34 -87 65 -3 11 -13 15 -29 12 -17 -3 -35 7 -68 36 -24 23 -53 41 -63 41
-10 0 -40 20 -65 45 -30 30 -51 43 -63 40 -11 -4 -24 4 -39 25 -17 23 -29 30
-56 30 -23 0 -34 5 -34 14 0 8 -9 17 -19 21 -10 3 -21 15 -24 25 -3 12 -13 19
-24 18 -36 -3 -53 2 -53 16 0 8 -9 18 -20 21 -11 3 -20 13 -20 20 0 8 -9 19
-20 25 -13 7 -20 7 -20 1 0 -19 -34 2 -78 46 -23 24 -46 42 -51 39 -5 -3 -11
3 -14 14 -3 11 -14 20 -24 20 -10 0 -39 18 -63 40 -24 22 -53 40 -64 40 -11 0
-39 20 -62 45 -24 27 -49 45 -60 44 -39 -4 -50 2 -78 46 -15 25 -33 45 -40 44
-32 -4 -56 3 -56 15 0 8 -9 18 -20 21 -11 3 -20 12 -20 20 0 8 -9 17 -20 20
-11 3 -25 15 -30 26 -8 14 -17 18 -34 13 -23 -5 -28 -1 -99 77 -10 11 -22 17
-27 14 -6 -4 -10 3 -10 14 0 16 -6 21 -24 21 -16 0 -40 16 -69 46 -25 25 -50
43 -55 40 -6 -3 -13 3 -17 14 -4 12 -15 20 -28 20 -14 0 -38 17 -62 45 -22 25
-47 45 -56 45 -9 0 -19 9 -22 20 -3 12 -14 20 -26 20 -12 0 -42 20 -67 45 -26
24 -50 42 -55 39 -5 -3 -14 7 -19 21 -5 14 -15 23 -21 20 -20 -13 -54 4 -73
37 -25 42 -86 99 -98 92 -5 -3 -12 3 -15 15 -3 12 -13 21 -23 21 -29 0 -50 11
-50 26 0 13 -12 18 -32 15 -5 0 -8 8 -8 19 0 11 -5 20 -10 20 -6 0 -20 11 -32
25 -11 13 -25 22 -29 19 -5 -3 -14 6 -21 20 -7 17 -19 26 -34 26 -14 0 -45 23
-84 63 -34 34 -65 62 -69 62 -13 0 -58 40 -70 62 -7 14 -17 20 -27 16 -10 -3
-36 17 -78 61 -35 36 -68 66 -74 66 -13 0 -51 38 -68 66 -7 12 -20 18 -36 16
-19 -2 -32 6 -54 35 -33 45 -122 133 -134 133 -13 0 -106 93 -113 113 -5 13
-13 16 -31 11 -17 -4 -30 1 -45 17 -11 13 -21 26 -21 31 0 10 -181 188 -191
188 -13 0 -205 193 -212 212 -4 11 -12 15 -21 12 -11 -4 -40 18 -86 65 -39 39
-75 71 -80 71 -6 0 -10 6 -10 14 0 8 -9 18 -20 21 -11 3 -20 12 -20 20 0 8 -9
17 -20 20 -11 3 -20 12 -20 20 0 8 -9 17 -20 20 -11 3 -20 10 -20 15 0 11
-110 120 -121 120 -5 0 -9 6 -9 14 0 8 -9 18 -20 21 -11 3 -20 12 -20 20 0 8
-9 17 -20 20 -11 3 -20 12 -20 20 0 8 -9 17 -20 20 -11 3 -20 10 -20 15 0 11
-110 120 -121 120 -5 0 -9 6 -9 14 0 8 -9 18 -20 21 -11 3 -20 12 -20 20 0 8
-9 17 -20 20 -11 3 -20 13 -20 21 0 13 -12 18 -32 15 -5 0 -8 5 -8 13 0 14
-108 126 -122 126 -4 0 -8 6 -8 14 0 8 -9 18 -20 21 -11 3 -20 12 -20 20 0 8
-9 17 -20 20 -11 3 -20 12 -20 20 0 8 -9 17 -20 20 -11 3 -20 13 -20 20 0 8
-9 19 -19 25 -11 5 -22 18 -26 29 -3 10 -68 82 -145 159 -76 78 -141 150 -145
161 -3 11 -15 23 -26 26 -10 4 -19 11 -19 16 0 12 -67 76 -102 97 -15 9 -30
28 -33 44 -4 15 -31 52 -61 82 -30 31 -54 59 -54 64 0 5 -10 18 -22 29 -83 75
-213 218 -210 232 2 9 15 41 28 71 53 114 86 187 111 240 14 30 35 78 48 105
12 28 37 79 54 115 17 36 31 72 31 81 0 9 7 22 14 29 8 6 20 28 27 48 6 20 20
53 29 72 10 19 32 67 50 105 17 39 40 88 50 110 10 22 30 66 44 98 14 31 37
82 51 112 13 30 36 81 51 113 62 136 87 190 110 235 13 26 24 52 24 57 0 6 23
59 51 118 28 59 61 130 74 157 12 28 34 77 50 110 15 33 37 83 50 110 53 119
116 256 152 335 17 36 34 76 38 90 4 14 13 32 20 40 7 8 18 33 25 55 7 22 19
47 27 56 8 9 19 34 24 55 6 21 18 49 27 62 16 24 51 102 75 167 7 17 20 42 29
56 9 14 21 44 27 66 6 22 17 46 25 52 8 7 17 23 21 38 3 14 24 64 47 112 22
47 41 102 42 121 l1 35 -1979 3 -1980 2 -43 48 c-24 26 -46 57 -49 68 -12 45
-59 127 -104 181 -5 7 -10 21 -10 33 l0 20 2313 2 2312 3 3 32 c2 23 -11 62
-41 125 -24 51 -48 104 -52 118 -4 14 -13 32 -20 40 -7 8 -16 26 -20 40 -3 14
-17 48 -30 75 -13 28 -37 82 -55 120 -17 39 -42 94 -56 122 -13 29 -35 76 -48
105 -14 29 -38 82 -54 118 -17 36 -42 91 -56 122 -15 32 -38 83 -51 113 -14
30 -37 81 -51 112 -14 32 -34 76 -44 98 -10 22 -33 72 -50 110 -17 39 -40 88
-50 110 -10 22 -33 72 -50 110 -17 39 -40 88 -50 110 -10 22 -33 72 -50 110
-17 39 -40 88 -50 110 -43 94 -80 174 -105 230 -15 33 -37 83 -50 110 -72 154
-85 183 -85 197 0 9 -7 21 -14 28 -8 6 -20 28 -27 48 -6 20 -19 53 -29 72 -10
19 -29 60 -43 90 -13 30 -38 84 -55 120 -16 36 -33 76 -37 90 -4 14 -13 32
-20 40 -7 8 -16 26 -20 40 -4 14 -29 70 -55 125 -26 55 -51 111 -55 125 -4 14
-13 32 -20 40 -7 8 -18 33 -25 55 -7 22 -21 51 -31 64 -11 13 -19 30 -19 37 0
7 -22 59 -49 116 -27 57 -52 114 -56 128 -4 14 -15 36 -25 50 -10 14 -21 36
-25 50 -4 14 -29 71 -56 128 -27 57 -49 107 -49 112 0 4 -13 34 -30 65 -16 31
-30 63 -30 70 0 7 -6 18 -14 24 -8 7 -17 24 -21 39 -3 14 -20 56 -37 92 -32
69 -59 126 -103 225 -14 33 -35 78 -45 100 -10 22 -33 72 -50 110 -17 39 -40
88 -50 110 -10 22 -33 72 -50 110 -17 39 -42 93 -55 120 -25 54 -58 128 -98
215 -13 30 -36 80 -50 110 -14 30 -40 87 -57 125 -17 39 -40 88 -50 110 -10
22 -33 72 -50 110 -17 39 -40 88 -50 110 -10 22 -29 65 -43 95 -26 58 -76 168
-107 235 -17 37 -45 99 -104 230 -13 28 -35 77 -51 110 -61 133 -74 162 -100
220 -15 33 -37 83 -50 110 -13 28 -34 75 -48 105 -13 30 -38 84 -55 120 -17
36 -34 78 -37 92 -4 15 -13 32 -21 39 -8 6 -14 16 -14 21 0 11 -54 136 -96
222 -13 28 -24 55 -24 62 0 6 -6 17 -14 23 -8 7 -17 24 -21 38 -3 14 -28 72
-54 127 -27 56 -52 112 -56 126 -4 14 -16 37 -26 52 -11 14 -19 32 -19 38 0 7
-16 47 -36 89 -39 84 -66 141 -100 216 -12 28 -36 79 -52 115 -55 118 -107
233 -157 345 -14 33 -35 78 -45 100 -24 53 -61 134 -100 220 -48 108 -88 180
-99 180 -11 0 -71 -89 -71 -105 0 -6 -16 -45 -36 -88 -20 -42 -44 -95 -54
-117 -10 -22 -32 -69 -48 -105 -29 -62 -53 -114 -110 -240 -14 -30 -36 -80
-49 -110 -14 -30 -33 -73 -43 -95 -10 -22 -33 -71 -50 -110 -18 -38 -40 -86
-50 -105 -9 -19 -23 -52 -29 -72 -7 -20 -19 -42 -27 -48 -7 -7 -14 -20 -14
-29 0 -9 -14 -45 -31 -81 -32 -65 -62 -131 -105 -225 -65 -145 -84 -185 -107
-235 -14 -30 -37 -82 -52 -115 -14 -33 -35 -78 -45 -100 -24 -51 -60 -132
-100 -220 -17 -38 -40 -88 -50 -110 -10 -22 -33 -71 -50 -110 -18 -38 -45 -99
-62 -135 -16 -36 -38 -83 -48 -105 -20 -46 -59 -131 -94 -207 -14 -29 -39 -84
-56 -123 -17 -38 -40 -88 -50 -110 -10 -22 -33 -71 -50 -110 -17 -38 -40 -88
-50 -110 -21 -45 -64 -142 -105 -230 -14 -33 -38 -84 -51 -112 -13 -29 -35
-78 -49 -108 -40 -88 -73 -161 -99 -218 -29 -62 -63 -137 -106 -232 -17 -38
-40 -88 -50 -110 -10 -22 -33 -71 -50 -110 -17 -38 -40 -88 -50 -110 -10 -22
-29 -65 -43 -95 -13 -30 -36 -82 -52 -115 -15 -33 -38 -85 -52 -115 -92 -204
-111 -222 -118 -114 -2 30 -9 50 -21 58 -12 10 -18 28 -19 61 0 34 -6 51 -19
61 -13 9 -19 27 -21 59 -1 29 -9 53 -22 68 -15 16 -19 31 -16 59 4 30 0 41
-19 60 -20 19 -24 30 -20 65 3 36 0 45 -23 66 -24 20 -28 31 -29 83 -1 42 -7
65 -20 81 -12 14 -20 39 -22 68 -1 31 -7 50 -20 59 -13 10 -17 25 -15 59 1 39
-2 50 -24 68 -22 20 -25 30 -25 88 0 54 -4 68 -19 78 -15 9 -17 20 -13 61 4
43 2 52 -17 61 -17 10 -21 21 -21 67 0 56 -12 91 -38 110 -10 7 -15 32 -16 78
-1 53 -5 71 -19 81 -15 11 -19 29 -22 85 -2 54 -7 74 -20 84 -13 9 -18 29 -20
81 -2 50 -7 71 -19 80 -12 10 -17 31 -19 84 -3 55 -7 74 -22 84 -14 11 -18 28
-19 80 -1 52 -5 70 -23 89 -19 20 -21 33 -20 101 2 68 -1 81 -18 93 -15 11
-21 31 -26 89 -4 51 -11 81 -23 94 -14 15 -18 40 -20 106 -3 71 -6 88 -22 100
-16 11 -19 27 -19 104 -1 78 -4 93 -20 105 -17 12 -20 27 -20 99 0 69 -4 89
-19 106 -15 16 -19 37 -20 105 -1 65 -5 88 -19 104 -14 16 -18 40 -20 127 -2
96 -4 109 -24 124 -19 16 -22 29 -25 129 -3 97 -5 113 -23 126 -18 13 -20 26
-20 145 -1 111 -3 132 -18 143 -14 11 -17 35 -20 147 -3 111 -6 136 -20 146
-14 10 -17 36 -19 163 -3 122 -6 153 -19 168 -14 16 -18 50 -21 186 -4 143 -7
170 -22 187 -16 17 -18 38 -17 155 3 187 -7 284 -30 305 -17 16 -19 40 -21
292 -3 262 -4 275 -24 295 -20 20 -21 27 -21 544 -1 470 -2 525 -17 535 -15
11 -16 576 -16 6970 0 3826 3 6961 6 6967 3 5 13 7 21 4 8 -3 2924 -6 6479 -6z"/>
<path d="M29959 24767 c-91 -112 -402 -494 -679 -832 -126 -154 -297 -363
-380 -465 -300 -367 -529 -647 -740 -905 -118 -144 -289 -354 -380 -465 -91
-111 -243 -297 -338 -414 -95 -116 -195 -238 -222 -271 -27 -33 -135 -165
-240 -293 -142 -174 -188 -237 -181 -246 13 -16 68 -39 144 -60 129 -36 163
-45 187 -50 32 -6 151 -37 270 -69 30 -9 84 -23 120 -32 36 -9 81 -21 100 -26
43 -13 239 -64 300 -80 25 -6 59 -15 75 -21 17 -5 41 -12 55 -14 14 -3 48 -11
75 -19 28 -8 79 -21 115 -30 36 -9 88 -22 115 -30 28 -8 61 -16 75 -19 14 -3
57 -14 95 -25 99 -28 224 -62 265 -72 46 -10 112 -28 177 -45 29 -8 79 -21
110 -30 32 -8 79 -22 104 -30 26 -8 56 -14 68 -14 12 0 38 -7 58 -15 20 -8 48
-17 62 -20 28 -5 141 -34 256 -66 39 -11 88 -24 110 -29 40 -9 87 -20 183 -46
125 -34 170 -46 213 -60 26 -7 55 -14 65 -14 11 0 46 -9 79 -20 33 -10 89 -26
125 -35 86 -22 165 -43 221 -61 26 -8 54 -14 64 -14 10 0 38 -7 64 -15 25 -8
75 -21 111 -30 36 -9 88 -23 115 -30 28 -8 79 -21 115 -31 36 -9 94 -24 130
-34 36 -10 94 -25 130 -35 36 -9 88 -23 115 -30 28 -8 79 -21 115 -30 89 -23
166 -44 221 -61 26 -8 57 -14 68 -14 12 0 31 -5 42 -10 10 -6 38 -14 61 -19
43 -9 141 -35 273 -72 39 -11 81 -22 95 -25 14 -3 48 -11 75 -19 28 -8 79 -21
115 -30 36 -9 85 -22 110 -30 49 -15 160 -31 160 -23 0 17 -168 372 -216 458
-8 14 -32 63 -55 110 -39 82 -47 99 -69 138 -5 9 -16 33 -24 52 -8 19 -21 46
-29 60 -8 14 -67 133 -132 265 -64 132 -122 249 -128 260 -6 11 -17 34 -24 50
-14 30 -24 48 -43 83 -5 9 -16 33 -24 52 -8 19 -22 46 -30 60 -8 14 -67 133
-131 265 -64 132 -123 251 -131 265 -8 14 -22 41 -30 60 -8 19 -20 44 -26 55
-6 11 -18 34 -25 50 -14 30 -24 48 -43 83 -5 9 -16 33 -24 52 -8 19 -22 46
-30 60 -8 14 -53 106 -101 205 -48 99 -93 191 -101 205 -8 14 -22 41 -30 60
-8 19 -20 44 -26 55 -6 11 -18 34 -25 50 -16 34 -25 51 -41 80 -6 11 -18 36
-26 55 -8 19 -22 46 -30 60 -8 14 -67 133 -131 265 -64 132 -123 251 -131 265
-7 14 -30 59 -50 100 -42 90 -57 118 -72 145 -6 11 -18 36 -26 55 -8 19 -21
46 -29 60 -8 14 -54 106 -102 205 -48 99 -94 191 -102 205 -8 14 -21 41 -29
60 -8 19 -19 43 -24 53 -19 34 -29 52 -43 82 -7 17 -19 39 -25 50 -6 11 -18
36 -26 55 -8 19 -21 46 -29 60 -28 48 -187 375 -187 383 0 5 -9 22 -20 38 -12
15 -26 42 -32 60 -11 31 -66 127 -88 154 -7 8 -18 15 -24 14 -6 0 -41 -37 -77
-82z"/>
<path d="M7570 24390 c0 -30 25 -98 77 -210 14 -30 36 -77 49 -105 12 -27 42
-93 67 -145 24 -52 47 -105 51 -118 4 -12 18 -42 32 -65 13 -23 24 -49 24 -58
0 -9 8 -27 19 -40 10 -13 22 -35 26 -49 4 -14 29 -70 55 -125 26 -55 51 -111
55 -125 4 -14 13 -32 20 -40 7 -8 16 -26 20 -40 4 -14 22 -56 40 -95 18 -38
51 -108 73 -155 22 -47 43 -96 47 -110 4 -14 13 -32 21 -40 7 -9 20 -34 27
-56 8 -22 24 -57 36 -79 11 -22 21 -43 21 -47 0 -4 22 -53 49 -110 27 -57 52
-114 56 -128 4 -14 13 -32 20 -40 7 -8 18 -33 25 -55 7 -22 18 -47 25 -55 7
-8 16 -26 20 -40 8 -26 38 -90 80 -173 14 -26 25 -52 25 -58 0 -11 38 -92 131
-284 16 -33 29 -67 29 -76 0 -9 7 -22 14 -29 8 -6 20 -28 27 -48 6 -20 19 -53
29 -72 10 -19 30 -61 44 -93 36 -81 73 -161 108 -237 31 -68 61 -133 102 -223
13 -28 38 -81 55 -117 17 -36 31 -72 31 -81 0 -9 7 -22 15 -29 8 -6 17 -22 20
-33 4 -12 17 -44 30 -72 13 -27 37 -81 55 -120 17 -38 40 -88 50 -110 10 -22
30 -66 44 -98 14 -31 37 -82 51 -112 13 -30 36 -81 51 -113 37 -82 82 -179
109 -237 13 -27 38 -81 55 -120 17 -38 40 -88 50 -110 10 -22 33 -71 50 -110
17 -38 40 -88 50 -110 10 -22 33 -71 50 -110 17 -38 42 -94 56 -122 13 -29 35
-78 49 -108 13 -30 36 -79 49 -108 14 -28 28 -61 31 -72 3 -11 20 -44 39 -74
l33 -53 37 60 c20 33 36 65 36 72 0 7 11 33 24 59 47 90 86 178 86 193 0 9 7
21 14 28 8 6 20 28 27 48 6 20 22 57 35 82 13 25 24 48 24 52 0 6 17 45 121
265 16 34 29 65 29 68 0 4 20 48 44 98 75 160 103 221 111 247 4 14 15 36 25
50 10 14 21 36 25 50 4 14 30 71 56 126 27 56 49 107 49 114 0 6 8 24 19 38
10 15 24 45 31 67 7 22 18 47 24 55 7 8 20 33 28 55 37 91 65 154 75 167 6 7
14 24 18 38 4 14 21 54 38 90 16 36 41 90 55 120 14 30 35 77 48 104 13 28 24
55 24 60 0 6 9 22 20 36 11 14 20 31 20 39 0 8 25 66 55 128 30 63 55 120 55
126 0 7 12 30 25 52 14 22 25 47 25 56 0 9 8 27 19 40 10 13 22 35 26 49 4 14
21 54 38 90 16 36 40 89 54 117 13 29 35 78 48 108 14 30 37 81 51 112 14 32
36 81 49 108 13 28 35 77 50 110 63 139 78 173 101 222 13 29 36 78 49 108 14
30 37 80 50 110 14 30 36 78 49 107 13 29 37 82 54 118 16 36 42 92 57 125 15
33 35 78 45 100 10 22 33 72 50 110 45 100 79 174 100 220 10 22 33 72 50 110
17 39 42 94 56 123 13 28 35 77 49 107 14 30 36 80 50 110 14 30 37 80 50 110
14 30 36 79 50 108 36 75 65 158 65 185 l0 22 -2565 0 -2565 0 0 -30z"/>
<path d="M32230 21294 c-12 -21 -12 -29 0 -47 17 -27 15 -24 148 -297 153
-314 186 -382 199 -405 6 -11 36 -74 68 -140 31 -66 62 -129 68 -140 20 -38
37 -72 147 -300 115 -239 129 -267 147 -300 7 -11 40 -78 74 -150 65 -135 127
-245 138 -245 4 0 23 17 43 38 67 69 1136 1383 1141 1402 8 32 -67 64 -263
111 -49 11 -116 28 -180 46 -30 8 -80 22 -110 30 -30 8 -76 21 -101 29 -26 8
-55 14 -65 14 -11 0 -39 6 -64 14 -25 8 -81 24 -125 36 -44 12 -102 28 -130
35 -27 8 -79 21 -115 30 -36 9 -87 23 -115 30 -27 8 -79 21 -115 30 -88 22
-166 43 -221 61 -26 7 -55 14 -65 14 -11 0 -46 9 -79 20 -33 10 -89 26 -125
35 -86 22 -165 43 -221 61 -61 19 -63 18 -79 -12z"/>
<path d="M11295 20438 c-6 -21 -38 -93 -85 -193 -10 -22 -33 -71 -50 -110 -18
-38 -43 -95 -57 -125 -23 -52 -36 -81 -96 -210 -14 -30 -39 -84 -55 -120 -17
-36 -51 -108 -75 -160 -25 -52 -48 -107 -52 -122 -4 -15 -13 -32 -21 -39 -8
-6 -14 -17 -14 -24 0 -6 -13 -38 -29 -71 -15 -32 -40 -86 -56 -119 -15 -33
-37 -82 -50 -110 -13 -27 -35 -76 -49 -108 -14 -31 -36 -81 -50 -110 -13 -28
-38 -83 -55 -122 -18 -38 -43 -90 -55 -115 -28 -54 -60 -160 -51 -169 8 -8
1799 -14 1843 -6 33 6 33 7 27 48 -4 23 -17 66 -31 95 -34 74 -72 158 -100
220 -13 29 -35 77 -49 107 -13 30 -36 80 -50 110 -13 30 -36 81 -51 113 -14
31 -38 84 -54 117 -31 67 -64 140 -105 230 -15 33 -37 83 -50 110 -13 28 -35
76 -49 108 -14 31 -37 82 -51 112 -13 30 -35 79 -48 108 -14 28 -38 81 -54
117 -17 36 -34 76 -38 90 -4 14 -16 36 -26 49 -11 13 -19 30 -19 38 0 9 -10
36 -23 62 -42 83 -75 155 -87 189 -11 27 -17 32 -46 32 -25 0 -34 -5 -39 -22z"/>
<path d="M14461 19008 c-7 -18 -23 -57 -37 -85 -51 -110 -78 -170 -101 -220
-12 -29 -34 -77 -47 -105 -14 -29 -39 -84 -56 -123 -17 -38 -40 -88 -50 -110
-10 -22 -33 -71 -50 -110 -17 -38 -40 -88 -50 -110 -10 -22 -33 -71 -50 -110
-17 -38 -40 -88 -50 -110 -10 -22 -32 -71 -50 -110 -17 -38 -43 -95 -57 -125
-14 -30 -35 -77 -48 -105 -12 -27 -34 -75 -48 -105 -14 -30 -40 -86 -57 -125
-17 -38 -40 -88 -50 -110 -10 -22 -33 -71 -50 -110 -47 -104 -79 -174 -107
-235 -31 -66 -70 -150 -94 -205 -9 -22 -31 -69 -47 -105 -17 -36 -44 -96 -62
-135 -17 -38 -40 -88 -50 -110 -10 -22 -33 -71 -50 -110 -17 -38 -40 -88 -50
-110 -10 -22 -33 -71 -50 -110 -17 -38 -40 -88 -50 -110 -10 -22 -33 -71 -50
-110 -17 -38 -42 -94 -56 -122 -34 -74 -67 -145 -158 -348 -15 -33 -36 -78
-46 -100 -10 -22 -33 -71 -50 -110 -17 -38 -40 -88 -50 -110 -10 -22 -33 -71
-50 -110 -17 -38 -40 -88 -50 -110 -10 -22 -33 -71 -50 -110 -18 -38 -44 -97
-60 -130 -77 -166 -121 -264 -156 -342 -14 -32 -35 -76 -46 -98 -12 -24 -18
-54 -16 -75 l3 -35 2285 0 2285 0 3 38 c2 25 -2 45 -12 56 -9 9 -22 35 -30 58
-8 23 -35 84 -60 136 -25 52 -46 100 -46 107 0 6 -8 24 -19 38 -10 15 -22 38
-26 52 -4 14 -29 70 -55 125 -26 55 -51 111 -55 125 -4 14 -13 32 -20 40 -7 8
-16 26 -20 40 -4 14 -21 54 -38 90 -16 36 -40 89 -54 117 -13 29 -35 78 -48
108 -14 30 -37 81 -51 112 -14 32 -34 76 -44 98 -10 22 -33 72 -50 110 -18 39
-43 93 -55 120 -60 129 -90 195 -155 340 -29 63 -80 176 -100 220 -10 22 -33
72 -50 110 -17 39 -40 88 -50 110 -10 22 -33 72 -50 110 -17 39 -40 88 -50
110 -10 22 -29 65 -43 95 -26 58 -76 168 -107 235 -17 37 -45 99 -104 230 -53
118 -74 163 -99 215 -14 30 -40 87 -57 125 -45 99 -79 174 -100 220 -64 138
-79 174 -85 197 -4 15 -13 32 -21 39 -8 6 -14 17 -14 23 0 7 -11 34 -24 62
-52 108 -84 180 -91 204 -4 14 -16 36 -26 49 -11 13 -19 29 -19 36 0 6 -25 65
-55 131 -30 65 -55 124 -55 130 0 6 -7 17 -15 24 -8 7 -22 36 -31 65 -8 30
-21 58 -28 65 -8 6 -17 22 -21 37 -3 14 -25 64 -47 112 -23 47 -49 106 -58
131 -13 39 -20 45 -46 48 -27 3 -33 -1 -43 -30z"/>
<path d="M10533 18038 c-12 -21 -3 -69 24 -128 14 -30 35 -77 48 -105 13 -27
35 -77 50 -110 14 -33 35 -78 45 -100 11 -22 35 -76 55 -120 20 -44 46 -100
57 -125 12 -25 31 -67 44 -95 29 -65 71 -156 127 -275 24 -52 48 -106 52 -120
4 -14 13 -32 20 -40 7 -8 16 -26 20 -40 8 -25 35 -88 107 -240 23 -47 47 -103
55 -125 7 -21 20 -46 27 -55 7 -8 19 -33 26 -55 7 -22 18 -47 25 -55 7 -8 16
-26 20 -40 4 -14 29 -70 55 -125 26 -55 51 -111 55 -125 4 -14 13 -32 20 -40
7 -8 16 -26 20 -40 8 -25 53 -125 126 -276 21 -45 39 -88 39 -95 0 -8 9 -25
20 -39 11 -14 20 -30 20 -36 0 -5 11 -32 24 -60 22 -45 33 -70 101 -219 13
-30 36 -80 50 -110 13 -30 35 -79 48 -108 14 -28 38 -81 54 -117 16 -36 36
-80 43 -97 10 -27 18 -33 41 -33 23 0 32 6 40 28 6 15 21 50 33 77 13 28 32
70 43 95 11 25 34 74 51 110 17 36 34 76 38 90 3 14 14 36 24 50 10 14 21 36
25 50 4 14 30 71 56 127 27 56 49 107 49 114 0 6 8 23 19 37 10 15 24 45 31
67 7 22 18 47 25 55 7 8 16 26 20 40 4 14 29 70 55 125 26 55 51 111 55 125 4
14 16 37 26 52 11 14 19 31 19 37 0 7 22 58 49 114 26 56 52 113 56 126 4 14
18 45 31 69 13 25 24 50 24 57 0 7 8 23 19 36 10 13 22 35 26 49 4 14 18 50
32 80 14 30 36 78 49 105 12 28 36 79 52 115 17 36 42 91 56 122 15 32 38 83
51 113 14 30 37 81 51 112 14 32 34 76 44 98 10 22 33 72 50 110 17 39 40 88
50 110 10 22 33 72 50 110 17 39 40 88 50 110 10 22 32 72 50 110 49 108 66
145 95 207 16 35 25 70 23 90 l-3 33 -1512 3 c-1202 2 -1513 0 -1520 -10z"/>
<path d="M22052 16900 c-41 -16 -79 -33 -85 -38 -7 -5 -30 -15 -52 -22 -22 -7
-52 -21 -67 -31 -14 -11 -31 -19 -36 -19 -6 0 -63 -25 -127 -55 -63 -30 -120
-55 -126 -55 -6 0 -23 -8 -37 -19 -15 -10 -40 -21 -57 -25 -16 -4 -41 -15 -55
-24 -24 -16 -102 -52 -165 -75 -17 -7 -42 -19 -55 -28 -14 -9 -36 -20 -50 -24
-24 -7 -96 -39 -204 -91 -28 -13 -55 -24 -62 -24 -6 0 -17 -6 -23 -14 -7 -8
-24 -17 -39 -21 -14 -3 -56 -20 -92 -37 -36 -17 -89 -41 -117 -55 -29 -13 -78
-35 -108 -48 -30 -14 -81 -37 -112 -51 -32 -14 -76 -34 -98 -44 -22 -10 -71
-33 -110 -50 -38 -18 -92 -42 -120 -55 -27 -13 -60 -26 -72 -30 -11 -3 -27
-12 -33 -20 -7 -8 -19 -15 -28 -15 -8 0 -45 -14 -81 -31 -36 -17 -91 -42 -121
-56 -30 -13 -77 -35 -105 -48 -58 -27 -142 -65 -220 -100 -30 -13 -79 -36
-108 -49 -28 -14 -61 -28 -72 -31 -11 -3 -44 -20 -74 -39 l-53 -33 60 -37 c33
-20 65 -36 72 -36 7 0 33 -11 59 -24 25 -13 78 -38 116 -56 39 -17 88 -40 110
-50 22 -10 67 -31 100 -45 33 -15 83 -37 110 -50 28 -13 77 -35 110 -50 33
-15 89 -40 125 -57 36 -16 89 -40 118 -54 29 -13 76 -35 105 -48 62 -29 137
-63 232 -106 39 -17 88 -40 110 -50 22 -10 72 -33 110 -50 39 -18 97 -45 130
-60 33 -16 86 -40 117 -54 32 -15 83 -38 113 -51 30 -14 81 -37 112 -51 189
-85 260 -118 324 -150 26 -13 54 -24 62 -24 8 0 25 -8 38 -19 13 -10 42 -24
64 -31 22 -7 47 -18 55 -25 8 -7 26 -16 40 -20 14 -4 70 -29 125 -55 55 -26
111 -51 125 -55 14 -4 32 -13 40 -20 8 -7 48 -24 88 -37 66 -23 74 -23 82 -8
10 19 17 2731 6 2748 -9 16 -9 16 -94 -18z"/>
<path d="M22446 16839 c-9 -46 -7 -1112 2 -1127 11 -16 97 -1 150 27 20 11 62
31 92 44 30 14 80 36 110 50 30 13 85 38 122 56 37 17 70 31 73 31 4 0 53 23
110 50 57 28 106 50 110 50 6 0 67 27 180 80 22 10 72 33 110 50 39 18 93 42
120 55 28 13 60 26 72 30 29 8 40 55 17 72 -10 7 -22 13 -28 13 -11 0 -117 49
-187 86 -26 13 -54 24 -62 24 -8 0 -25 8 -38 19 -13 10 -42 24 -64 31 -22 7
-47 18 -55 25 -8 7 -26 16 -40 20 -22 7 -75 31 -275 125 -85 39 -159 73 -240
110 -38 17 -88 40 -109 52 -22 11 -60 26 -85 33 -26 7 -53 16 -62 19 -12 6
-18 0 -23 -25z"/>
<path d="M18751 15157 c-8 -8 -11 -147 -11 -453 0 -360 3 -444 14 -453 23 -19
72 -5 231 69 22 10 72 33 110 50 39 17 88 40 110 50 22 10 72 33 110 50 39 17
86 40 106 50 52 28 119 50 151 50 18 0 45 16 80 47 85 75 108 97 108 106 0 4
-17 15 -37 23 -21 9 -76 34 -123 56 -145 68 -202 95 -275 128 -38 17 -93 43
-120 56 -28 13 -54 24 -59 24 -4 0 -20 8 -34 19 -15 10 -45 24 -67 31 -22 7
-47 18 -55 25 -8 7 -26 16 -40 20 -14 4 -43 17 -65 30 -47 26 -118 38 -134 22z"/>
<path d="M20045 14679 c-12 -19 -27 -8369 -15 -8384 12 -15 70 -6 115 19 17 9
33 16 37 16 4 0 53 22 110 49 57 27 114 52 128 56 14 4 32 13 40 20 8 7 26 16
40 20 14 4 54 21 90 38 80 37 152 69 227 103 32 14 76 34 98 44 22 10 72 33
110 50 88 40 169 76 220 100 22 10 66 30 98 44 75 34 147 66 227 103 36 17 76
34 90 38 14 4 32 13 40 20 8 7 26 16 40 20 14 4 54 21 90 37 36 17 83 38 105
48 78 36 181 82 220 100 22 10 72 33 110 50 88 40 169 76 220 100 22 10 65 29
95 43 30 13 85 38 122 56 37 17 69 31 72 31 3 0 52 23 110 50 58 28 108 50
111 50 4 0 36 14 73 31 37 18 91 42 119 56 29 13 78 35 108 48 30 14 81 37
112 51 32 14 76 34 98 44 22 10 72 33 110 50 39 17 88 40 110 50 22 10 72 33
110 50 39 17 88 40 110 50 22 10 65 29 95 43 30 13 85 38 122 56 37 17 73 31
81 31 8 0 25 8 38 19 13 10 35 22 49 26 14 4 54 21 90 37 36 17 83 38 105 48
78 36 181 82 220 100 22 10 72 33 110 50 39 17 88 40 110 50 22 10 72 33 110
50 39 17 88 40 110 50 22 10 65 29 95 43 30 13 85 38 122 56 37 17 72 31 78
31 7 0 24 8 38 19 15 10 38 22 52 26 14 4 54 21 90 37 36 17 85 39 110 51 25
11 68 30 95 43 179 81 295 133 340 153 22 10 65 30 95 44 52 24 94 43 220 100
30 13 85 39 121 56 36 17 71 31 78 31 7 0 25 8 39 19 15 10 45 24 67 31 22 7
45 16 50 20 6 5 53 27 105 50 52 23 118 52 145 65 95 44 258 118 325 147 25
12 68 31 95 44 28 12 82 37 120 54 39 17 88 40 110 50 22 10 72 33 110 50 39
18 93 43 120 56 28 13 57 24 66 24 9 0 28 9 42 20 14 11 29 20 33 20 9 0 101
41 314 138 66 31 150 69 230 104 25 12 68 31 95 44 28 12 82 37 120 54 306
137 400 184 400 200 0 12 -71 51 -180 100 -38 17 -88 40 -110 50 -22 10 -71
33 -110 50 -38 17 -92 42 -120 55 -69 32 -168 78 -240 110 -33 15 -82 37 -110
50 -27 13 -77 36 -110 50 -33 15 -82 38 -109 51 -28 13 -55 24 -62 24 -6 0
-22 8 -35 19 -13 10 -35 22 -49 26 -26 8 -131 55 -190 85 -19 10 -46 21 -60
25 -14 4 -32 13 -40 20 -8 7 -33 18 -55 25 -22 7 -51 21 -64 31 -13 11 -30 19
-38 19 -8 0 -66 25 -128 55 -63 30 -116 55 -119 55 -3 0 -49 21 -103 46 -93
44 -129 60 -261 120 -82 37 -179 82 -237 109 -27 13 -81 38 -120 55 -38 17
-88 40 -110 50 -22 10 -71 33 -110 50 -101 46 -173 78 -230 105 -87 41 -178
82 -240 110 -33 15 -78 35 -100 45 -55 26 -169 78 -235 107 -66 29 -100 45
-250 116 -63 30 -126 58 -140 62 -14 4 -32 13 -40 20 -8 7 -33 18 -55 25 -22
7 -47 18 -55 25 -8 7 -26 16 -40 20 -14 4 -72 30 -130 57 -153 72 -198 93
-263 122 -31 14 -82 37 -112 51 -30 13 -81 36 -113 51 -82 37 -179 82 -237
109 -27 13 -81 38 -120 55 -38 17 -88 40 -110 50 -22 10 -71 33 -110 50 -38
17 -88 40 -110 50 -22 10 -71 33 -110 50 -38 18 -97 45 -130 60 -33 16 -86 40
-117 54 -32 15 -83 38 -113 51 -30 14 -81 37 -112 51 -156 70 -289 132 -334
155 -20 11 -43 19 -52 19 -8 0 -25 8 -38 19 -13 10 -42 24 -64 31 -22 7 -47
18 -55 25 -8 7 -26 16 -40 20 -14 4 -70 29 -125 55 -55 26 -111 51 -125 55
-14 4 -36 16 -49 26 -13 11 -30 19 -38 19 -9 0 -36 11 -62 24 -25 13 -73 36
-106 51 -33 15 -82 37 -110 50 -27 13 -77 35 -110 50 -33 15 -89 40 -125 57
-36 16 -83 38 -105 47 -22 10 -69 32 -105 49 -36 16 -96 44 -135 62 -38 17
-88 40 -110 50 -22 10 -71 33 -110 50 -81 36 -155 70 -240 110 -33 16 -86 40
-117 54 -32 15 -84 38 -115 53 -32 14 -83 37 -113 50 -64 29 -142 65 -220 101
-30 14 -80 37 -110 50 -30 14 -72 33 -92 43 -40 21 -103 25 -113 8z"/>
<path d="M11450 14604 c-6 -14 -10 -27 -10 -30 0 -3 -22 -52 -50 -110 -27 -58
-50 -107 -50 -110 0 -5 -29 -69 -105 -229 -23 -49 -45 -100 -49 -113 -4 -12
-18 -42 -32 -65 -13 -23 -24 -49 -24 -58 0 -9 -8 -27 -19 -40 -10 -13 -22 -35
-26 -49 -4 -14 -29 -70 -55 -125 -26 -55 -51 -111 -55 -125 -4 -14 -13 -32
-20 -40 -7 -8 -18 -33 -25 -55 -7 -22 -21 -51 -31 -64 -11 -13 -19 -30 -19
-38 0 -8 -22 -60 -49 -116 -27 -56 -52 -113 -56 -127 -4 -14 -16 -35 -26 -48
-10 -13 -21 -37 -25 -55 -3 -18 -14 -43 -24 -57 -10 -14 -21 -36 -25 -50 -4
-14 -28 -68 -52 -120 -88 -188 -101 -215 -108 -240 -4 -14 -13 -32 -20 -40 -7
-8 -16 -26 -20 -40 -4 -14 -28 -68 -52 -120 -57 -121 -98 -210 -129 -280 -39
-85 -60 -130 -93 -200 -37 -78 -72 -181 -65 -192 6 -9 2664 -11 2687 -3 12 5
12 14 1 58 -7 29 -22 70 -33 92 -11 22 -34 72 -51 110 -17 39 -40 88 -50 110
-10 22 -30 66 -44 98 -34 75 -66 147 -103 227 -17 36 -34 76 -38 90 -4 14 -13
32 -20 40 -7 8 -18 33 -25 55 -7 22 -16 45 -20 50 -10 13 -140 300 -140 310 0
4 -8 19 -19 33 -10 15 -22 38 -26 52 -4 14 -21 54 -37 90 -17 36 -39 85 -51
110 -50 111 -67 149 -95 210 -17 36 -42 91 -56 122 -15 32 -38 83 -51 113 -14
30 -37 81 -51 112 -54 121 -76 169 -94 208 -10 22 -33 72 -50 110 -17 39 -40
88 -50 110 -10 22 -32 72 -50 110 -18 39 -42 93 -55 120 -45 98 -72 160 -85
193 -10 26 -18 32 -41 32 -22 0 -32 -6 -39 -26z"/>
<path d="M19570 14211 c-19 -10 -61 -30 -93 -44 -31 -15 -81 -38 -110 -51 -28
-14 -83 -39 -122 -56 -38 -18 -93 -43 -120 -56 -28 -13 -54 -24 -58 -24 -4 0
-49 -20 -99 -44 -165 -78 -227 -106 -233 -106 -4 0 -52 -22 -108 -49 -56 -27
-113 -52 -127 -56 -14 -4 -32 -13 -40 -20 -8 -7 -26 -16 -40 -20 -14 -4 -54
-21 -90 -38 -36 -16 -89 -40 -117 -54 -29 -13 -78 -35 -108 -48 -30 -14 -81
-37 -112 -51 -32 -14 -76 -34 -98 -44 -22 -10 -71 -33 -110 -50 -38 -17 -88
-40 -110 -50 -22 -10 -71 -33 -110 -50 -38 -17 -88 -40 -110 -50 -22 -10 -71
-33 -110 -50 -38 -17 -88 -40 -110 -50 -39 -18 -142 -64 -220 -100 -22 -10
-69 -31 -105 -48 -36 -16 -76 -33 -90 -37 -14 -4 -36 -16 -49 -26 -13 -11 -29
-19 -36 -19 -6 0 -65 -25 -131 -55 -65 -30 -124 -55 -130 -55 -6 0 -17 -7 -24
-15 -7 -8 -31 -20 -54 -26 -22 -6 -52 -19 -66 -29 -14 -9 -36 -21 -50 -25 -14
-4 -71 -29 -128 -56 -57 -27 -109 -49 -116 -49 -7 0 -24 -8 -37 -19 -13 -10
-35 -21 -49 -25 -14 -4 -54 -21 -90 -38 -36 -17 -85 -40 -110 -51 -25 -11 -67
-30 -95 -43 -27 -12 -81 -37 -120 -54 -38 -18 -88 -40 -110 -50 -22 -10 -71
-33 -110 -50 -38 -17 -88 -40 -110 -50 -22 -10 -71 -33 -110 -50 -38 -17 -88
-40 -110 -50 -22 -10 -71 -33 -110 -50 -38 -17 -88 -40 -110 -50 -22 -10 -66
-30 -98 -44 -75 -34 -147 -66 -227 -103 -36 -17 -76 -34 -90 -38 -14 -4 -32
-13 -40 -20 -8 -7 -33 -18 -55 -25 -22 -7 -44 -16 -50 -20 -5 -5 -53 -27 -105
-50 -52 -23 -119 -53 -147 -66 -29 -14 -79 -36 -110 -50 -32 -14 -80 -36 -108
-49 -27 -13 -77 -35 -110 -50 -33 -14 -78 -35 -100 -45 -22 -10 -71 -33 -110
-50 -38 -17 -88 -40 -110 -50 -22 -10 -71 -33 -110 -50 -38 -17 -88 -40 -110
-50 -22 -10 -71 -32 -110 -50 -38 -17 -92 -42 -120 -54 -27 -13 -70 -32 -95
-43 -25 -11 -74 -34 -110 -51 -36 -16 -92 -42 -125 -57 -33 -15 -82 -37 -110
-50 -27 -13 -61 -26 -75 -30 -14 -4 -36 -16 -49 -26 -13 -11 -29 -19 -35 -19
-7 0 -34 -11 -62 -24 -27 -13 -107 -50 -179 -81 -71 -32 -157 -70 -190 -85
-70 -33 -158 -73 -235 -107 -69 -31 -131 -63 -148 -76 -22 -17 10 -38 158
-104 25 -11 74 -34 110 -51 36 -16 97 -44 135 -62 39 -17 88 -40 110 -50 22
-10 72 -33 110 -50 83 -38 161 -73 233 -106 52 -24 98 -45 227 -104 39 -18 88
-40 110 -50 22 -10 72 -33 110 -50 155 -70 182 -82 226 -106 26 -13 54 -24 62
-24 8 0 25 -8 38 -19 13 -10 35 -22 49 -26 14 -4 54 -21 90 -38 36 -16 90 -41
120 -55 30 -14 77 -35 104 -48 28 -13 55 -24 60 -24 6 0 22 -9 36 -20 14 -11
31 -20 38 -20 6 0 56 -21 110 -46 53 -26 129 -61 167 -79 39 -19 82 -37 97
-40 15 -4 32 -13 39 -21 6 -8 17 -14 23 -14 7 0 34 -11 62 -24 27 -13 76 -36
109 -50 33 -15 87 -40 120 -56 33 -15 92 -42 130 -60 39 -17 88 -40 110 -50
22 -10 72 -33 110 -50 39 -17 88 -40 110 -50 22 -10 69 -31 105 -48 110 -50
266 -121 355 -162 54 -25 168 -77 235 -107 83 -37 158 -72 225 -103 33 -16 87
-41 120 -56 33 -14 82 -37 109 -50 28 -13 55 -24 62 -24 6 0 17 -6 23 -14 7
-8 24 -17 38 -21 14 -3 73 -28 130 -56 57 -27 106 -49 109 -49 5 0 125 -54
157 -71 9 -5 25 -13 35 -18 9 -5 43 -21 75 -35 79 -35 150 -68 227 -103 36
-17 76 -34 90 -38 14 -4 36 -16 49 -26 13 -11 30 -19 38 -19 8 0 36 -11 62
-24 25 -14 78 -39 116 -56 39 -17 88 -40 110 -50 22 -10 72 -33 110 -50 39
-17 93 -42 120 -55 28 -13 77 -35 110 -50 56 -25 136 -62 230 -105 22 -10 72
-33 110 -50 39 -17 88 -40 110 -50 22 -10 72 -33 110 -50 39 -17 94 -42 122
-56 29 -13 76 -35 105 -48 80 -37 172 -80 281 -130 54 -25 100 -46 103 -46 5
0 124 -54 157 -71 52 -27 184 -89 190 -89 3 0 50 -21 104 -46 54 -25 123 -57
153 -71 30 -14 82 -37 115 -53 129 -59 163 -72 186 -68 l24 3 6 1375 c5 1035
12 6009 9 6088 0 18 -69 14 -110 -7z"/>
<path d="M27485 12520 c-17 -19 -16 -24 64 -187 93 -190 103 -210 119 -238 27
-49 182 -371 182 -378 0 -5 9 -22 20 -38 12 -15 26 -43 32 -61 6 -18 19 -44
28 -58 10 -14 21 -36 25 -50 4 -14 15 -36 25 -50 10 -14 21 -36 25 -50 8 -30
84 -150 94 -150 13 0 70 67 382 450 334 409 349 428 349 446 0 13 -98 64 -125
64 -11 0 -40 6 -65 14 -41 13 -80 24 -260 73 -30 8 -76 21 -101 29 -26 8 -54
14 -64 14 -10 0 -39 7 -66 15 -27 8 -71 22 -98 30 -27 8 -58 15 -69 15 -11 0
-41 9 -67 20 -26 11 -56 20 -66 20 -11 0 -41 6 -67 14 -26 8 -76 21 -112 31
-36 9 -85 23 -110 31 -56 18 -53 18 -75 -6z"/>
<path d="M23526 7383 c-8 -49 -8 -1791 0 -1821 6 -21 11 -23 48 -17 22 4 64
17 91 30 28 12 93 42 145 65 52 23 100 45 105 50 6 4 28 13 50 20 22 7 47 18
55 25 8 7 26 16 40 20 14 4 54 21 90 38 36 16 89 40 117 54 29 13 78 35 108
48 30 14 80 37 110 50 30 14 81 37 112 51 32 14 76 34 98 44 22 10 72 33 110
50 39 17 88 40 110 50 22 10 72 33 110 50 39 17 88 40 110 50 22 10 65 29 95
43 30 13 80 35 110 49 30 14 87 39 125 57 116 52 120 55 120 81 0 16 -8 28
-25 36 -81 38 -215 100 -330 152 -30 14 -98 45 -150 69 -113 53 -175 82 -253
117 -84 38 -164 74 -232 106 -124 58 -192 89 -255 118 -68 32 -211 97 -295
137 -27 12 -77 35 -110 50 -104 47 -189 86 -230 108 -34 17 -148 57 -166 57
-4 0 -9 -17 -13 -37z"/>
</g>
</svg>
